<?xml version="1.0" encoding="UTF-8"?>
<svg id="Layer_2" data-name="Layer 2" xmlns="http://www.w3.org/2000/svg" viewBox="0 0 62.75 70">
  <defs>
    <style>
      .cls-1 {
        fill: #231f20;
      }
    </style>
  </defs>
  <g id="Layer_1-2" data-name="Layer 1">
    <g>
      <path class="cls-1" d="M19.24,33.63c-.48,2.21-2.45,3.86-4.8,3.86-.63,0-1.13.51-1.13,1.13s.51,1.13,1.13,1.13c3.59,0,6.58-2.65,7.1-6.11,2.2-.24,4.23-1.22,5.81-2.82.44-.45.43-1.16-.02-1.6s-1.16-.43-1.6.02c-1.39,1.42-3.25,2.2-5.24,2.2-4.04,0-7.33-3.29-7.33-7.33,0-.63-.51-1.13-1.13-1.13s-1.13.51-1.13,1.13c0,4.87,3.65,8.9,8.35,9.52"/>
      <path class="cls-1" d="M24.04,43.47c0-.63-.51-1.13-1.13-1.13-5.29,0-9.6,4.31-9.6,9.6,0,.05,0,.11,0,.16-.42-.06-.85-.09-1.29-.09-.63,0-1.13.51-1.13,1.13s.51,1.13,1.13,1.13c4.04,0,7.33,3.29,7.33,7.33,0,.63.51,1.13,1.13,1.13s1.13-.51,1.13-1.13c0-4.02-2.49-7.47-6.01-8.9-.03-.26-.04-.52-.04-.78,0-4.04,3.29-7.33,7.33-7.33.63,0,1.13-.51,1.13-1.13"/>
      <path class="cls-1" d="M56.12,51.38c-.49.22-.76.74-.65,1.26.11.56.17,1.14.17,1.71,0,3.85-2.6,7.24-6.32,8.24-.3.08-.56.29-.71.57-1.48,2.82-4.38,4.58-7.56,4.58-4.71,0-8.54-3.83-8.54-8.54,0-.32-.01-.64-.04-.95.03-.1.04-.2.04-.3V20.49c0-2.04,1.66-3.7,3.7-3.7.63,0,1.13-.51,1.13-1.13s-.51-1.13-1.13-1.13c-1.4,0-2.68.49-3.7,1.29V5.97c0-2.04,1.66-3.7,3.7-3.7,2.28,0,5.13,1,8.02,2.77-2.06.5-3.86,1.9-4.8,3.85-.27.56-.04,1.24.53,1.52.56.27,1.24.04,1.52-.53.83-1.71,2.53-2.77,4.42-2.77.61,0,1.2.11,1.74.32.06.03.13.06.2.08,1.75.75,2.97,2.49,2.97,4.51,0,.9-.24,1.76-.69,2.52-5.01.32-8.98,4.49-8.98,9.58,0,.63.51,1.13,1.13,1.13s1.13-.51,1.13-1.13c0-4.04,3.29-7.33,7.33-7.33s7.33,3.29,7.33,7.33c0,.94-.18,1.87-.54,2.75-.19.46-.06.98.32,1.3,1.68,1.4,2.64,3.45,2.64,5.63,0,4.04-3.29,7.33-7.33,7.33-.63,0-1.13.51-1.13,1.13s.51,1.13,1.13,1.13c2.43,0,4.65-.91,6.34-2.4.65,1.11.99,2.37.99,3.69,0,2.89-1.71,5.52-4.36,6.7M21.7,67.74c-3.18,0-6.08-1.75-7.56-4.58-.15-.28-.4-.49-.71-.57-3.72-1-6.32-4.39-6.32-8.24,0-.58.06-1.15.17-1.71.11-.52-.16-1.05-.65-1.26-2.65-1.18-4.36-3.81-4.36-6.7,0-1.31.34-2.57.99-3.69,1.69,1.49,3.91,2.4,6.34,2.4.63,0,1.13-.51,1.13-1.13s-.51-1.13-1.13-1.13c-4.04,0-7.33-3.29-7.33-7.33,0-2.18.96-4.23,2.63-5.63.38-.32.51-.84.32-1.3-.36-.88-.54-1.81-.54-2.75,0-4.04,3.29-7.33,7.33-7.33s7.33,3.29,7.33,7.33c0,.63.51,1.13,1.13,1.13s1.13-.51,1.13-1.13c0-5.09-3.98-9.26-8.99-9.58-.45-.76-.69-1.62-.69-2.52,0-2.02,1.23-3.76,2.97-4.51.07-.02.13-.05.2-.08.54-.2,1.13-.32,1.74-.32,1.9,0,3.59,1.06,4.42,2.77.27.56.95.8,1.52.53.56-.27.8-.95.53-1.52-.95-1.95-2.74-3.35-4.8-3.85,2.89-1.77,5.74-2.77,8.02-2.77,2.04,0,3.7,1.66,3.7,3.7v14.68c-1.02-.81-2.31-1.29-3.7-1.29-.63,0-1.13.51-1.13,1.13s.51,1.13,1.13,1.13c2.04,0,3.7,1.66,3.7,3.7v27.26c-1.41-1.82-3.4-3.19-5.73-3.82-.61-.16-1.23.19-1.39.8-.16.61.2,1.23.8,1.39,3.72,1,6.32,4.39,6.32,8.24,0,4.71-3.83,8.54-8.54,8.54M62.75,33.79c0-2.58-1.03-5.03-2.85-6.83.29-.92.43-1.88.43-2.85,0-4.67-3.35-8.57-7.77-9.42.34-.84.51-1.75.51-2.67,0-2.96-1.8-5.5-4.35-6.6-4.26-3.4-8.93-5.42-12.5-5.42-1.99,0-3.75.98-4.84,2.48-1.09-1.5-2.85-2.48-4.84-2.48-3.58,0-8.24,2.02-12.5,5.42-2.56,1.1-4.35,3.64-4.35,6.6,0,.93.17,1.83.51,2.67-4.42.86-7.77,4.76-7.77,9.42,0,.97.15,1.93.43,2.85-1.82,1.8-2.85,4.25-2.85,6.83,0,2.02.63,3.89,1.7,5.44-1.11,1.6-1.7,3.48-1.7,5.45,0,3.49,1.9,6.69,4.92,8.37-.05.43-.08.87-.08,1.3,0,4.71,3.07,8.87,7.53,10.29,1.94,3.32,5.47,5.36,9.33,5.36,4.23,0,7.9-2.45,9.68-6,1.77,3.55,5.44,6,9.68,6,3.86,0,7.39-2.04,9.33-5.36,4.46-1.42,7.53-5.58,7.53-10.29,0-.44-.03-.87-.08-1.3,3.01-1.69,4.92-4.88,4.92-8.37,0-1.97-.59-3.84-1.7-5.45,1.07-1.55,1.7-3.42,1.7-5.44"/>
      <path class="cls-1" d="M50.73,36.29c-2.35,0-4.32-1.66-4.8-3.86,4.7-.62,8.35-4.65,8.35-9.52,0-.63-.51-1.13-1.13-1.13s-1.13.51-1.13,1.13c0,4.04-3.29,7.33-7.33,7.33-1.99,0-3.85-.78-5.24-2.2-.44-.45-1.16-.46-1.6-.02-.45.44-.46,1.16-.02,1.6,1.57,1.61,3.6,2.59,5.81,2.82.52,3.45,3.51,6.11,7.1,6.11.63,0,1.13-.51,1.13-1.13s-.51-1.13-1.13-1.13"/>
      <path class="cls-1" d="M47.1,49.59c-.44,0-.87.03-1.29.09,0-.05,0-.11,0-.16,0-5.29-4.31-9.6-9.6-9.6-.63,0-1.13.51-1.13,1.13s.51,1.13,1.13,1.13c4.04,0,7.33,3.29,7.33,7.33,0,.26-.01.52-.04.78-3.52,1.43-6.01,4.88-6.01,8.9,0,.63.51,1.13,1.13,1.13s1.13-.51,1.13-1.13c0-4.04,3.29-7.33,7.33-7.33.63,0,1.13-.51,1.13-1.13s-.51-1.13-1.13-1.13"/>
    </g>
  </g>
</svg>