<?xml version="1.0" encoding="UTF-8"?>
<svg id="Layer_2" data-name="Layer 2" xmlns="http://www.w3.org/2000/svg" viewBox="0 0 63.68 64.6">
  <defs>
    <style>
      .cls-1 {
        fill: #231f20;
      }
    </style>
  </defs>
  <g id="Layer_1-2" data-name="Layer 1">
    <g>
      <path class="cls-1" d="M1.84,1.84h41.53v60.91H1.84V1.84ZM.92,64.6h43.38c.51,0,.92-.41.92-.92V.92c0-.51-.41-.92-.92-.92H.92C.41,0,0,.41,0,.92v62.76c0,.51.41.92.92.92"/>
      <path class="cls-1" d="M6.23,9h8.31v8.31H6.23v-8.31ZM5.31,19.15h10.15c.51,0,.92-.41.92-.92v-10.15c0-.51-.41-.92-.92-.92H5.31c-.51,0-.92.41-.92.92v10.15c0,.51.41.92.92.92"/>
      <path class="cls-1" d="M38.76,7.15h-16.15c-.51,0-.92.41-.92.92s.41.92.92.92h16.15c.51,0,.92-.41.92-.92s-.41-.92-.92-.92"/>
      <path class="cls-1" d="M38.76,15.23h-16.15c-.51,0-.92.41-.92.92s.41.92.92.92h16.15c.51,0,.92-.41.92-.92s-.41-.92-.92-.92"/>
      <path class="cls-1" d="M38.76,23.3H5.31c-.51,0-.92.41-.92.92s.41.92.92.92h33.46c.51,0,.92-.41.92-.92s-.41-.92-.92-.92"/>
      <path class="cls-1" d="M38.76,31.38H5.31c-.51,0-.92.41-.92.92s.41.92.92.92h33.46c.51,0,.92-.41.92-.92s-.41-.92-.92-.92"/>
      <path class="cls-1" d="M38.76,39.45H5.31c-.51,0-.92.41-.92.92s.41.92.92.92h33.46c.51,0,.92-.41.92-.92s-.41-.92-.92-.92"/>
      <path class="cls-1" d="M38.76,47.53H5.31c-.51,0-.92.41-.92.92s.41.92.92.92h33.46c.51,0,.92-.41.92-.92s-.41-.92-.92-.92"/>
      <path class="cls-1" d="M38.76,55.61H5.31c-.51,0-.92.41-.92.92s.41.92.92.92h33.46c.51,0,.92-.41.92-.92s-.41-.92-.92-.92"/>
      <path class="cls-1" d="M53.74,61.57c-.06.15-.18.18-.27.18s-.2-.03-.26-.18l-2.98-7.39h6.49l-2.98,7.39ZM51.39,4.93c0-1.14.93-2.08,2.08-2.08s2.08.93,2.08,2.08v5.31h-4.15v-5.31ZM57.16,14.49h-7.38v-1.37c0-.57.47-1.04,1.04-1.04h5.31c.57,0,1.04.47,1.04,1.04v1.37h0ZM49.78,16.34h7.38v35.99h-7.38V16.34ZM62.76,28.7c.51,0,.92-.41.92-.92v-10.33c0-3.66-2.75-6.66-6.29-7.12v-5.4c0-2.16-1.76-3.92-3.92-3.92s-3.92,1.76-3.92,3.92v5.61c-.95.47-1.61,1.44-1.61,2.58v40.13c0,.1.03.2.06.3,0,.01,0,.03,0,.05l3.49,8.66c.33.81,1.1,1.33,1.97,1.33s1.65-.52,1.98-1.33l3.49-8.66s0-.03,0-.05c.03-.09.06-.19.06-.3V13.13c0-.14-.02-.26-.04-.39,1.7.9,2.87,2.67,2.87,4.72v10.33c0,.51.41.92.92.92"/>
    </g>
  </g>
</svg>