<?xml version="1.0" encoding="UTF-8"?>
<svg id="Layer_2" data-name="Layer 2" xmlns="http://www.w3.org/2000/svg" viewBox="0 0 79.52 62.64">
  <defs>
    <style>
      .cls-1 {
        fill: none;
        stroke: #231f20;
        stroke-linecap: round;
        stroke-linejoin: round;
        stroke-width: 1.5px;
      }
    </style>
  </defs>
  <g id="Layer_1-2" data-name="Layer 1">
    <path class="cls-1" d="M20.77,44.28c-10.02,4.13-15.54,6.72-16.56,7.79-1.36,1.42-2.03,4.69-2.03,9.82H.75v-14.3l.61-.21c.68-.28,1.32-.76,1.93-1.44.61-.67,1.02-1.26,1.22-1.76l.3-.75c.13.07.25.13.35.16.1.04.25-.03.46-.21.2-.18.3-.55.3-1.12,0-.36-.07-.59-.2-.69-.13-.11-.29-.18-.46-.21-.17-.04-.41-.48-.71-1.34-.3-.85-.56-2.09-.76-3.73-.14,0-.27-.03-.4-.1-.14-.07-.38-.3-.71-.69-.34-.39-.63-.86-.86-1.39-.24-.54-.42-1.37-.56-2.51-.07-.5-.1-1.07-.1-1.71s.04-1.31.1-2.03l.71-.21c-.55-1.14-.95-3.77-1.22-7.9v-.75c.07-.64.32-1.56.76-2.77.44-1.21.86-2.03,1.27-2.46.2-.21.53-.41.97-.59.44-.17.79-.27,1.07-.27l.51-.11c0-.5.58-1.05,1.73-1.65,1.15-.6,2.4-.94,3.76-1.01,1.01-.07,1.69-.11,2.03-.11h.41c.13.07,1.22.43,3.25,1.07.68.21,1.29.43,1.83.64l1.22.64c.41.21.81.59,1.22,1.12.41.54.66.87.76,1.01.1.14.37.55.81,1.23.44.68.73,1.08.87,1.23.47.64.71,1.74.71,3.31v1.17c-.13.93-.17,1.85-.1,2.78l-.61,3.63h.71c.07.71.1,1.39.1,2.03s-.03,1.21-.1,1.71c-.13,1.14-.34,1.99-.61,2.56-.27.57-.54,1.03-.81,1.39-.27.36-.51.57-.71.64l-.3.1c-.27,1.64-.55,2.88-.81,3.73-.27.86-.53,1.3-.76,1.34-.24.04-.43.1-.56.21-.13.11-.2.34-.2.69,0,.57.12.94.36,1.12.24.18.42.23.56.16l.3-.11c.07.22.2.5.41.86M53.17,44.71c13.07,5.48,19.94,8.57,20.62,9.28.34.42.61,1.3.81,2.61.21,1.32.3,2.54.3,3.68v1.6H4.82v-.85c0-3.77.41-6.12,1.22-7.04.61-.71,7.48-3.8,20.62-9.28.81-.36,1.57-.91,2.29-1.65.71-.75,1.2-1.44,1.47-2.08l.41-.85c.07,0,.17.04.3.11.13.07.32,0,.56-.22.24-.21.36-.64.36-1.28,0-.43-.07-.71-.2-.85-.14-.14-.32-.23-.56-.27-.24-.04-.53-.55-.86-1.55-.34-1-.65-2.46-.91-4.37-.13,0-.27-.05-.41-.16-.14-.1-.42-.37-.86-.8-.44-.43-.8-.96-1.07-1.6-.27-.64-.51-1.6-.71-2.88-.07-.78-.1-1.6-.1-2.45,0-.64.03-1.35.1-2.14l.91-.32c-.34-.64-.66-2.24-.96-4.8-.3-2.56-.46-4.23-.46-5.01,0-.57.27-1.65.81-3.26.54-1.6,1.01-2.61,1.42-3.04.27-.28.68-.53,1.22-.75.54-.21,1.02-.36,1.42-.43h.51c0-.64.68-1.32,2.03-2.03,1.36-.71,2.84-1.1,4.47-1.18,1.76-.07,2.69-.1,2.8-.1s1.37.39,3.81,1.17c.68.21,1.3.43,1.88.64.58.22,1.07.5,1.48.86l1.12.75c.27.21.61.57,1.02,1.06.41.5.68.85.81,1.07l.81,1.17.91,1.39c.61.92.92,2.47.92,4.64s-.17,4.08-.51,5.71l-.41,2.45h.82c.07.86.1,1.65.1,2.4s-.04,1.48-.1,2.19c-.14,1.28-.36,2.24-.66,2.88-.3.64-.63,1.17-.96,1.6-.34.42-.65.71-.91.85l-.3.11c-.34,1.92-.7,3.38-1.07,4.37-.37,1-.66,1.51-.86,1.55-.2.03-.39.12-.56.27-.17.14-.25.42-.25.85,0,.64.12,1.07.35,1.28.24.22.46.29.66.22l.3-.11c.74,2.28,2.13,3.81,4.17,4.59M78.77,19.53v3.2l-.71,5.12h.71v3.42c-.13,1.28-.4,2.35-.81,3.2-.41.85-.78,1.39-1.11,1.6l-.51.21c-.27,1.64-.56,2.88-.86,3.73-.3.86-.56,1.3-.76,1.34-.2.04-.37.1-.51.21-.13.11-.2.34-.2.69,0,.57.1.94.31,1.12.2.18.37.23.51.16l.3-.11c.68,1.92,1.86,3.24,3.55,3.95h.1v14.51h-1.22v-1.28c0-4.41-.68-7.26-2.03-8.54-.88-.99-6.3-3.59-16.25-7.79l.4-.86c.13.07.25.13.36.16.1.04.25-.03.46-.21.2-.18.3-.55.3-1.12,0-.36-.07-.59-.2-.69s-.29-.18-.46-.21c-.17-.04-.41-.48-.71-1.34-.3-.85-.59-2.09-.86-3.73-.14,0-.25-.03-.36-.1-.1-.07-.32-.3-.66-.69-.34-.39-.63-.86-.86-1.39-.24-.54-.42-1.37-.56-2.51-.07-.5-.1-1.07-.1-1.71s.03-1.31.1-2.03l.71-.21c-.27-.57-.54-2.03-.81-4.37-.07-.78-.1-1.39-.1-1.82l-.2-2.45h-.1c.07-.57.32-1.48.76-2.72.44-1.24.83-2.08,1.17-2.51.2-.21.54-.41,1.02-.59.47-.17.88-.27,1.22-.27l.41-.11c0-.5.58-1.05,1.73-1.65,1.15-.6,2.4-.94,3.76-1.01,1.02-.07,1.69-.11,2.03-.11h.4c.14.07,1.19.43,3.15,1.07.68.21,1.3.44,1.88.69.57.25,1.02.46,1.32.64.3.18.68.54,1.12,1.07.44.54.71.86.81.96.1.11.39.52.86,1.23.48.71.74,1.14.81,1.28.34.64.58,1.49.71,2.56"/>
  </g>
</svg>