<?xml version="1.0" encoding="UTF-8"?>
<svg id="Layer_2" data-name="Layer 2" xmlns="http://www.w3.org/2000/svg" viewBox="0 0 95.36 66.61">
  <defs>
    <style>
      .cls-1 {
        fill: #231f20;
      }

      .cls-2 {
        fill: none;
        stroke: #231f20;
        stroke-miterlimit: 10;
        stroke-width: .88px;
      }
    </style>
  </defs>
  <g id="Layer_1-2" data-name="Layer 1">
    <path class="cls-1" d="M76.97,41.56l-.68-.73c3.46-3.21,6.25-5.54,10.31-7.97,1.59-.95,3.3-1.79,5.07-2.5l.06-.02c1.32-.53,2.17-1.83,2.2-3.37.05-2.84-.63-7.61-4.2-14.21-3.71-6.9-7.45-9.74-9.93-10.91-1.09-.52-2.27-.53-3.27-.03l-.02.02-.11.05c-.27.11-.58.23-.9.36-2.47,1-6.6,2.66-11.2,2.35-2.24-.16-4.4.27-6.23,1.26l-8.06,4.3-6.13,4.43-.59-.81,6.21-4.48,8.1-4.32c2-1.07,4.34-1.55,6.77-1.37,4.36.3,8.21-1.25,10.75-2.28.31-.12.59-.24.85-.34h.02c1.29-.7,2.83-.71,4.23-.04,2.62,1.23,6.54,4.2,10.39,11.34,3.66,6.79,4.37,11.74,4.31,14.7-.03,1.92-1.15,3.61-2.84,4.29l-.06.02c-1.71.68-3.36,1.5-4.91,2.43-3.98,2.39-6.73,4.68-10.14,7.84"/>
    <path class="cls-2" d="M76.97,41.56l-.68-.73c3.46-3.21,6.25-5.54,10.31-7.97,1.59-.95,3.3-1.79,5.07-2.5l.06-.02c1.32-.53,2.17-1.83,2.2-3.37.05-2.84-.63-7.61-4.2-14.21-3.71-6.9-7.45-9.74-9.93-10.91-1.09-.52-2.27-.53-3.27-.03l-.02.02-.11.05c-.27.11-.58.23-.9.36-2.47,1-6.6,2.66-11.2,2.35-2.24-.16-4.4.27-6.23,1.26l-8.06,4.3-6.13,4.43-.59-.81,6.21-4.48,8.1-4.32c2-1.07,4.34-1.55,6.77-1.37,4.36.3,8.21-1.25,10.75-2.28.31-.12.59-.24.85-.34h.02c1.29-.7,2.83-.71,4.23-.04,2.62,1.23,6.54,4.2,10.39,11.34,3.66,6.79,4.37,11.74,4.31,14.7-.03,1.92-1.15,3.61-2.84,4.29l-.06.02c-1.71.68-3.36,1.5-4.91,2.43-3.98,2.39-6.73,4.68-10.14,7.84Z"/>
    <path class="cls-1" d="M72.4,48.46s-.09,0-.14,0c-1.28-.03-2.55-.5-3.58-1.32l.63-.78c.85.69,1.91,1.08,2.98,1.1,1.36.05,2.62-.53,3.43-1.54,1-1.24,1.17-2.97.46-4.52-.32-.7-.81-1.34-1.43-1.83l-16.35-13.08c-1.59-1.24-2.38-1.79-3.07-2.27-.91-.63-1.69-1.17-3.88-2.99l.64-.77c2.16,1.79,2.92,2.32,3.81,2.94.71.49,1.51,1.05,3.12,2.31l16.35,13.09c.74.6,1.33,1.36,1.71,2.19.87,1.89.65,4.02-.59,5.56-.98,1.22-2.47,1.92-4.1,1.92"/>
    <path class="cls-2" d="M72.4,48.46s-.09,0-.14,0c-1.28-.03-2.55-.5-3.58-1.32l.63-.78c.85.69,1.91,1.08,2.98,1.1,1.36.05,2.62-.53,3.43-1.54,1-1.24,1.17-2.97.46-4.52-.32-.7-.81-1.34-1.43-1.83l-16.35-13.08c-1.59-1.24-2.38-1.79-3.07-2.27-.91-.63-1.69-1.17-3.88-2.99l.64-.77c2.16,1.79,2.92,2.32,3.81,2.94.71.49,1.51,1.05,3.12,2.31l16.35,13.09c.74.6,1.33,1.36,1.71,2.19.87,1.89.65,4.02-.59,5.56-.98,1.22-2.47,1.92-4.1,1.92Z"/>
    <path class="cls-1" d="M12.45,36.07c-.67-.59-1.39-1.17-2.21-1.85-.65-.53-1.38-1.12-2.22-1.83-1.53-1.29-3.23-2.53-5.05-3.67h-.02c-1.76-1.11-2.71-3.06-2.46-4.99.38-2.99,1.89-7.81,6.94-13.78C12.72,3.69,17.47,1.65,20.53,1.04c1.6-.33,3.26.04,4.55,1.03l.03.02c1.07.66,1.97,1.53,2.92,2.46,1.79,1.73,3.64,3.52,6.99,4.44.16.05,3.73,1.16,8.82,4.76l-.58.82c-4.95-3.5-8.49-4.61-8.52-4.62-3.58-.98-5.61-2.94-7.41-4.68-.93-.9-1.81-1.75-2.81-2.36l-.1-.08c-1.02-.78-2.38-1.09-3.7-.81-2.91.58-7.44,2.54-12.54,8.56C3.29,16.36,1.83,20.99,1.48,23.85c-.21,1.57.55,3.1,1.97,3.99h.02c1.89,1.19,3.63,2.45,5.2,3.78.84.71,1.56,1.29,2.21,1.82.84.68,1.56,1.27,2.24,1.87l-.66.75Z"/>
    <path class="cls-2" d="M12.45,36.07c-.67-.59-1.39-1.17-2.21-1.85-.65-.53-1.38-1.12-2.22-1.83-1.53-1.29-3.23-2.53-5.05-3.67h-.02c-1.76-1.11-2.71-3.06-2.46-4.99.38-2.99,1.89-7.81,6.94-13.78C12.72,3.69,17.47,1.65,20.53,1.04c1.6-.33,3.26.04,4.55,1.03l.03.02c1.07.66,1.97,1.53,2.92,2.46,1.79,1.73,3.64,3.52,6.99,4.44.16.05,3.73,1.16,8.82,4.76l-.58.82c-4.95-3.5-8.49-4.61-8.52-4.62-3.58-.98-5.61-2.94-7.41-4.68-.93-.9-1.81-1.75-2.81-2.36l-.1-.08c-1.02-.78-2.38-1.09-3.7-.81-2.91.58-7.44,2.54-12.54,8.56C3.29,16.36,1.83,20.99,1.48,23.85c-.21,1.57.55,3.1,1.97,3.99h.02c1.89,1.19,3.63,2.45,5.2,3.78.84.71,1.56,1.29,2.21,1.82.84.68,1.56,1.27,2.24,1.87l-.66.75Z"/>
    <path class="cls-1" d="M49.24,66.17s-.09,0-.13,0c-1.75-.04-3.91-.95-5.76-2.44l-2.71-2.17.63-.78,2.71,2.17c1.69,1.36,3.62,2.18,5.16,2.22.94.02,1.73-.24,2.38-.79,1.13-.85,1.75-1.93,1.77-3.07.02-1.1-.53-2.17-1.5-2.95l.63-.78,2.27,1.82c.86.69,1.92,1.08,2.98,1.11,1.36.03,2.61-.53,3.43-1.54.68-.85.99-1.94.87-3.07-.14-1.26-.81-2.45-1.84-3.27l.62-.78,2.65,2.11c2.19,1.53,4.85,1.35,6.28-.45.72-.9,1.02-2.06.84-3.25-.18-1.2-.83-2.3-1.82-3.1l.63-.78c1.18.96,1.96,2.28,2.18,3.73.22,1.47-.15,2.9-1.05,4.02-1.75,2.18-5.04,2.46-7.66.63l-.08-.06c.11.35.19.72.23,1.08.15,1.4-.23,2.75-1.08,3.81-1.01,1.26-2.55,1.97-4.23,1.92-1.23-.03-2.46-.47-3.47-1.23.08.35.12.7.12,1.06-.02,1.46-.79,2.82-2.15,3.84-.78.66-1.76,1.01-2.89,1.01"/>
    <path class="cls-2" d="M49.24,66.17s-.09,0-.13,0c-1.75-.04-3.91-.95-5.76-2.44l-2.71-2.17.63-.78,2.71,2.17c1.69,1.36,3.62,2.18,5.16,2.22.94.02,1.73-.24,2.38-.79,1.13-.85,1.75-1.93,1.77-3.07.02-1.1-.53-2.17-1.5-2.95l.63-.78,2.27,1.82c.86.69,1.92,1.08,2.98,1.11,1.36.03,2.61-.53,3.43-1.54.68-.85.99-1.94.87-3.07-.14-1.26-.81-2.45-1.84-3.27l.62-.78,2.65,2.11c2.19,1.53,4.85,1.35,6.28-.45.72-.9,1.02-2.06.84-3.25-.18-1.2-.83-2.3-1.82-3.1l.63-.78c1.18.96,1.96,2.28,2.18,3.73.22,1.47-.15,2.9-1.05,4.02-1.75,2.18-5.04,2.46-7.66.63l-.08-.06c.11.35.19.72.23,1.08.15,1.4-.23,2.75-1.08,3.81-1.01,1.26-2.55,1.97-4.23,1.92-1.23-.03-2.46-.47-3.47-1.23.08.35.12.7.12,1.06-.02,1.46-.79,2.82-2.15,3.84-.78.66-1.76,1.01-2.89,1.01Z"/>
    <polygon class="cls-1" points="33.41 55.77 33.42 55.78 34.13 55.08 33.41 55.77"/>
    <polygon class="cls-2" points="33.42 55.78 33.41 55.77 34.13 55.08 33.42 55.78"/>
    <g>
      <path class="cls-1" d="M50.41,37.78c-1.99,0-3.79-1.12-4.91-3.19l-5.89-11.04c-1.33-2.49-1.68-4.55-1.06-6.29l.05-.15.13-.09,9.8-7.05.58.81-9.67,6.95c-.45,1.43-.11,3.18,1.04,5.34l5.89,11.04c1.68,3.13,4.45,3.09,6.48,2,1.54-.83,3.2-3.25,1.46-6.52l-3.47-6.49,1.14-6.52.99.17-1.08,6.18,3.31,6.19c1.85,3.47.42,6.64-1.87,7.87-.98.53-1.98.78-2.93.78"/>
      <path class="cls-2" d="M50.41,37.78c-1.99,0-3.79-1.12-4.91-3.19l-5.89-11.04c-1.33-2.49-1.68-4.55-1.06-6.29l.05-.15.13-.09,9.8-7.05.58.81-9.67,6.95c-.45,1.43-.11,3.18,1.04,5.34l5.89,11.04c1.68,3.13,4.45,3.09,6.48,2,1.54-.83,3.2-3.25,1.46-6.52l-3.47-6.49,1.14-6.52.99.17-1.08,6.18,3.31,6.19c1.85,3.47.42,6.64-1.87,7.87-.98.53-1.98.78-2.93.78Z"/>
      <path class="cls-1" d="M19.2,30.52l-4.9,4.06c-.89.73-1.44,1.78-1.55,2.93-.11,1.16.24,2.28.97,3.17.74.89,1.78,1.44,2.93,1.55,1.16.11,2.28-.24,3.17-.97l4.94-4.09c.95-.78,1.52-1.94,1.56-3.19.04-1.07-.31-2.1-.99-2.91-1.17-1.43-3.18-1.94-4.9-1.27l-1.23.73ZM17.08,43.25c-.17,0-.34,0-.51-.02-1.42-.13-2.7-.81-3.61-1.91-.91-1.09-1.34-2.48-1.2-3.9.13-1.42.81-2.71,1.91-3.61l5-4.13,1.37-.8c2.16-.87,4.6-.24,6.08,1.55.83,1,1.26,2.28,1.22,3.59-.06,1.53-.76,2.95-1.92,3.92l-4.93,4.09c-.96.8-2.15,1.22-3.39,1.22"/>
      <path class="cls-2" d="M19.2,30.52l-4.9,4.06c-.89.73-1.44,1.78-1.55,2.93-.11,1.16.24,2.28.97,3.17.74.89,1.78,1.44,2.93,1.55,1.16.11,2.28-.24,3.17-.97l4.94-4.09c.95-.78,1.52-1.94,1.56-3.19.04-1.07-.31-2.1-.99-2.91-1.17-1.43-3.18-1.94-4.9-1.27l-1.23.73ZM17.08,43.25c-.17,0-.34,0-.51-.02-1.42-.13-2.7-.81-3.61-1.91-.91-1.09-1.34-2.48-1.2-3.9.13-1.42.81-2.71,1.91-3.61l5-4.13,1.37-.8c2.16-.87,4.6-.24,6.08,1.55.83,1,1.26,2.28,1.22,3.59-.06,1.53-.76,2.95-1.92,3.92l-4.93,4.09c-.96.8-2.15,1.22-3.39,1.22Z"/>
      <path class="cls-1" d="M34.32,44.37c-.97,0-1.95.32-2.75.99l-4.97,4.11c-1.82,1.52-2.07,4.26-.56,6.09,1.53,1.83,4.27,2.09,6.11.57l4.93-4.1c.95-.78,1.52-1.94,1.56-3.19.04-1.07-.31-2.1-.99-2.91-.86-1.03-2.09-1.57-3.34-1.57M29.39,58.12c-1.54,0-3.06-.66-4.12-1.92-1.86-2.26-1.55-5.62.68-7.5l4.97-4.11c2.27-1.87,5.63-1.55,7.5.71.83,1,1.27,2.28,1.22,3.59-.05,1.53-.76,2.96-1.92,3.92l-4.93,4.09c-.99.82-2.2,1.22-3.4,1.22"/>
      <path class="cls-2" d="M34.32,44.37c-.97,0-1.95.32-2.75.99l-4.97,4.11c-1.82,1.52-2.07,4.26-.56,6.09,1.53,1.83,4.27,2.09,6.11.57l4.93-4.1c.95-.78,1.52-1.94,1.56-3.19.04-1.07-.31-2.1-.99-2.91-.86-1.03-2.09-1.57-3.34-1.57ZM29.39,58.12c-1.54,0-3.06-.66-4.12-1.92-1.86-2.26-1.55-5.62.68-7.5l4.97-4.11c2.27-1.87,5.63-1.55,7.5.71.83,1,1.27,2.28,1.22,3.59-.05,1.53-.76,2.96-1.92,3.92l-4.93,4.09c-.99.82-2.2,1.22-3.4,1.22Z"/>
      <path class="cls-1" d="M29.95,35.48c-1,0-1.96.34-2.74.98l-6.75,5.6c-1.83,1.52-2.09,4.24-.57,6.07.73.88,1.76,1.43,2.91,1.53,1.15.11,2.27-.24,3.15-.97l6.76-5.59c.94-.78,1.51-1.94,1.55-3.17.04-1.06-.31-2.09-.99-2.9-.73-.88-1.77-1.43-2.92-1.54-.14-.01-.28-.02-.42-.02M23.22,50.68c-.17,0-.34,0-.51-.02-1.42-.13-2.69-.8-3.59-1.89-1.87-2.26-1.55-5.61.7-7.48l6.75-5.59c1.09-.9,2.46-1.32,3.88-1.19,1.42.13,2.69.81,3.59,1.89.83,1,1.26,2.27,1.22,3.57-.05,1.52-.75,2.94-1.91,3.9l-6.76,5.59c-.96.8-2.14,1.22-3.38,1.22"/>
      <path class="cls-2" d="M29.95,35.48c-1,0-1.96.34-2.74.98l-6.75,5.6c-1.83,1.52-2.09,4.24-.57,6.07.73.88,1.76,1.43,2.91,1.53,1.15.11,2.27-.24,3.15-.97l6.76-5.59c.94-.78,1.51-1.94,1.55-3.17.04-1.06-.31-2.09-.99-2.9-.73-.88-1.77-1.43-2.92-1.54-.14-.01-.28-.02-.42-.02ZM23.22,50.68c-.17,0-.34,0-.51-.02-1.42-.13-2.69-.8-3.59-1.89-1.87-2.26-1.55-5.61.7-7.48l6.75-5.59c1.09-.9,2.46-1.32,3.88-1.19,1.42.13,2.69.81,3.59,1.89.83,1,1.26,2.27,1.22,3.57-.05,1.52-.75,2.94-1.91,3.9l-6.76,5.59c-.96.8-2.14,1.22-3.38,1.22Z"/>
      <path class="cls-1" d="M38.85,53.08c-.78,0-1.56.23-2.25.69-.12.08-.22.16-.32.24l-2.36,1.96c-.82.68-1.32,1.63-1.43,2.7-.1,1.07.22,2.1.89,2.92,1.4,1.69,3.93,1.93,5.63.53l2.37-1.96c.87-.72,1.4-1.79,1.44-2.94.03-.98-.29-1.93-.91-2.69-.79-.95-1.92-1.45-3.07-1.45M36.48,64.03c-1.44,0-2.87-.62-3.85-1.81-.85-1.02-1.25-2.32-1.12-3.65.13-1.33.76-2.53,1.78-3.37l2.37-1.96c.14-.11.27-.21.41-.3,2.12-1.44,4.98-1.03,6.62.96.78.94,1.18,2.14,1.14,3.36-.05,1.43-.71,2.77-1.8,3.67l-2.37,1.96c-.93.77-2.06,1.14-3.18,1.14"/>
      <path class="cls-2" d="M38.85,53.08c-.78,0-1.56.23-2.25.69-.12.08-.22.16-.32.24l-2.36,1.96c-.82.68-1.32,1.63-1.43,2.7-.1,1.07.22,2.1.89,2.92,1.4,1.69,3.93,1.93,5.63.53l2.37-1.96c.87-.72,1.4-1.79,1.44-2.94.03-.98-.29-1.93-.91-2.69-.79-.95-1.92-1.45-3.07-1.45ZM36.48,64.03c-1.44,0-2.87-.62-3.85-1.81-.85-1.02-1.25-2.32-1.12-3.65.13-1.33.76-2.53,1.78-3.37l2.37-1.96c.14-.11.27-.21.41-.3,2.12-1.44,4.98-1.03,6.62.96.78.94,1.18,2.14,1.14,3.36-.05,1.43-.71,2.77-1.8,3.67l-2.37,1.96c-.93.77-2.06,1.14-3.18,1.14Z"/>
    </g>
    <rect class="cls-1" x="63.51" y="36.56" width="1" height="12.63" transform="translate(-9.13 67.1) rotate(-52.14)"/>
    <rect class="cls-2" x="63.51" y="36.56" width="1" height="12.63" transform="translate(-9.13 67.1) rotate(-52.14)"/>
    <rect class="cls-1" x="55.71" y="43.64" width="1" height="10.63" transform="translate(-16.93 63.31) rotate(-52.15)"/>
    <rect class="cls-2" x="55.71" y="43.64" width="1" height="10.63" transform="translate(-16.93 63.31) rotate(-52.15)"/>
    <rect class="cls-1" x="48.02" y="50.69" width="1" height="9.02" transform="translate(-24.84 59.64) rotate(-52.15)"/>
    <rect class="cls-2" x="48.02" y="50.69" width="1" height="9.02" transform="translate(-24.84 59.64) rotate(-52.15)"/>
    <g>
      <path class="cls-1" d="M60.71,25.87c-2.59,0-4.03-.71-4.16-.78l.46-.89-.23.45.23-.45c.07.03,7,3.4,18.71-5.74l.62.79c-6.93,5.41-12.25,6.62-15.63,6.62"/>
      <path class="cls-2" d="M60.71,25.87c-2.59,0-4.03-.71-4.16-.78l.46-.89-.23.45.23-.45c.07.03,7,3.4,18.71-5.74l.62.79c-6.93,5.41-12.25,6.62-15.63,6.62Z"/>
    </g>
  </g>
</svg>