<?xml version="1.0" encoding="UTF-8"?>
<svg id="Layer_2" data-name="Layer 2" xmlns="http://www.w3.org/2000/svg" viewBox="0 0 58.8 62.14">
  <defs>
    <style>
      .cls-1 {
        fill: none;
        stroke: #231f20;
        stroke-linecap: round;
        stroke-miterlimit: 10;
        stroke-width: 2px;
      }
    </style>
  </defs>
  <g id="Layer_1-2" data-name="Layer 1">
    <path class="cls-1" d="M29.4,8.1V1M29.4,25.85v-7.1M57.8,50.7L47.15,1M1,50.7L11.65,1M19.09,60.61l10.05-21.78c.08-.18.12-.27.18-.29.05-.02.11-.02.16,0,.06.03.1.12.18.29l10.05,21.78c.1.23.16.34.13.4-.02.06-.06.1-.12.12-.07.02-.18-.04-.4-.15l-9.8-4.9s-.07-.03-.09-.04c-.02,0-.04,0-.07,0-.02,0-.05.02-.09.04l-9.8,4.9c-.22.11-.33.17-.4.15-.06-.02-.1-.06-.12-.12-.02-.06.03-.18.13-.4Z"/>
  </g>
</svg>