<?xml version="1.0" encoding="UTF-8"?>
<svg id="Layer_2" data-name="Layer 2" xmlns="http://www.w3.org/2000/svg" viewBox="0 0 72.95 62.64">
  <defs>
    <style>
      .cls-1 {
        fill: none;
        stroke: #000;
        stroke-linecap: round;
        stroke-linejoin: round;
        stroke-width: 1.5px;
      }
    </style>
  </defs>
  <g id="Layer_1-2" data-name="Layer 1">
    <path class="cls-1" d="M57.6,50.99c2.32,2.43,2.23,6.31-.09,8.84-2.42,2.43-6.13,2.43-8.45-.1l-14.95-16.51-13.93,17.57c-1.3,1.46-3.62,1.46-5.02,0l-3.62-3.88c-1.4-1.36-1.4-3.79,0-5.24l15.97-15.53-7.71-7.77c-2.51-2.53-4-3.3-6.04-2.62-2.04.78-4.93.78-7.62-1.07C.38,20.8.75,13.52.75,13.52l.47-.78s5.2,3.5,5.85,3.88c.84.68,3.72,2.04,6.32-2.14,2.7-4.17.47-6.79-.28-7.28-.65-.39-5.85-3.98-5.85-3.98l.46-.78s6.04-3.2,11.7.29c0,.19,1.39,1.07,1.95,1.55,3.62,3.4,3.62,7.18,2.97,10.29-.56,2.82,0,3.79,2.13,6.22l7.71,8.06,9.19-9.81,6.69,7.18-8.82,9.42,16.35,15.34ZM71.44,26.43l-5.02,5.34c-1.02,1.07-2.6,1.07-3.71,0l-1.12-1.26c-.84-.78-1.21-2.24-.74-2.91.84-.58.56-2.33-1.02-3.88-2.23-2.43-5.11-2.53-6.22-1.26-.46.39-1.95,2.04-1.95,2.04l-6.87-7.09,1.11-1.16s.28-.29.84-.97c2.14-2.23-.09-4.75-.09-4.75-6.04-6.21-14.49-6.12-14.49-6.12l-.09-2.23c17-4.56,23.41,3.2,25.73,5.63,2.14,2.23,4.37,4.56,4.92,5.15,1.21,1.26,0,4.85,1.76,6.89.84.87,1.95,1.26,2.79,1.26.93-.87,2.41-.58,3.16.29l1.02,1.17c1.02,1.07,1.02,2.72,0,3.88M55.46,53.03c-1.21-1.26-3.16-1.26-4.46,0-1.11,1.26-1.11,3.4,0,4.56,1.3,1.26,3.25,1.46,4.46.1,1.21-1.17,1.21-3.4,0-4.66"/>
  </g>
</svg>