<?xml version="1.0" encoding="UTF-8"?>
<svg id="Layer_2" data-name="Layer 2" xmlns="http://www.w3.org/2000/svg" xmlns:xlink="http://www.w3.org/1999/xlink" viewBox="0 0 50.06 50.06">
  <defs>
    <style>
      .cls-1, .cls-2 {
        fill: none;
      }

      .cls-3 {
        clip-path: url(#clippath-1);
      }

      .cls-2 {
        stroke: #000;
        stroke-linecap: round;
        stroke-linejoin: round;
        stroke-width: 1.42px;
      }

      .cls-4 {
        clip-path: url(#clippath-2);
      }

      .cls-5 {
        clip-path: url(#clippath);
      }
    </style>
    <clipPath id="clippath">
      <rect class="cls-1" width="50.06" height="50.06"/>
    </clipPath>
    <clipPath id="clippath-1">
      <rect class="cls-1" width="50.06" height="50.06"/>
    </clipPath>
    <clipPath id="clippath-2">
      <rect class="cls-1" width="50.06" height="50.06"/>
    </clipPath>
  </defs>
  <g id="Layer_1-2" data-name="Layer 1">
    <g>
      <g class="cls-5">
        <path class="cls-2" d="M7.02,30.15c-.96-1.79-1.78-3.58-2.56-5.6-.59-1.83-1.16-4-1.61-6.2-.2-1.29-.35-2.64-.47-4.06"/>
        <path class="cls-2" d="M24.58,41.77c-1.39.86-1.98,1.18-2.61,1.4-.25.05-.59.05-1.01-.05-.65-.29-3.16-1.84-4.88-3.05-1.66-1.3-3.23-2.68-4.64-4.06-1.22-1.36-2.32-2.73-3.5-4.38l-.93-1.48"/>
        <path class="cls-2" d="M46.99,34.18c-.61-.3-1.23-.45-2.1-.49h-2.08"/>
        <path class="cls-2" d="M31.64,33.69c-2.2.04-2.7.15-3.22.37"/>
        <path class="cls-2" d="M46.99,34.18c.5.7.61.95.73,1.33.03.33.05,1.17.05,2.5"/>
        <path class="cls-2" d="M43.91,31.14c-.05-.69-.18-1.43-.36-2.02-.27-.64-.57-1.16-.97-1.71-.53-.57-1.03-1.02-1.61-1.42-.62-.34-1.27-.61-1.97-.81-.67-.11-1.39-.14-2.11-.09-.62.09-1.24.25-1.86.48-.62.31-1.24.7-1.74,1.11-.49.49-.9,1-1.22,1.49-.26.49-.46.99-.62,1.49-.13.62-.19,1.48-.19,4.05"/>
        <path class="cls-2" d="M2.37,14.28c-.09-1.47-.07-2.14,0-2.82.1-.53.24-.99.47-1.53.23-.38.57-.8.82-1.04.42-.33.68-.48,1.21-.72l2.25-.84"/>
        <path class="cls-2" d="M19.53,2.77c1.42-.43,1.98-.48,2.4-.46.29.05.81.21,1.56.45"/>
        <path class="cls-2" d="M29.97,47.77c-.62-.04-1.12-.19-1.61-.48-.45-.45-.69-.83-.87-1.33-.03-.24-.05-.74-.05-1.49"/>
        <path class="cls-2" d="M27.43,35.84c.08-.49.29-.98.55-1.35l.44-.43"/>
        <path class="cls-2" d="M37.65,36.86c2.18,0,3.96,1.77,3.96,3.96s-1.77,3.96-3.96,3.96-3.96-1.77-3.96-3.96,1.77-3.96,3.96-3.96Z"/>
      </g>
      <line class="cls-2" x1="42.81" y1="33.69" x2="31.64" y2="33.69"/>
      <g class="cls-3">
        <path class="cls-2" d="M38.16,8.17c1.85.67,2.93,2.6,2.54,4.53"/>
        <line class="cls-2" x1="47.77" y1="38.01" x2="47.77" y2="45.26"/>
        <path class="cls-2" d="M40.76,12.7c-.03,3.11-.34,5.64-1.44,9.63"/>
      </g>
      <line class="cls-2" x1="43.92" y1="33.69" x2="43.91" y2="31.14"/>
      <g class="cls-4">
        <path class="cls-2" d="M47.77,45.26c.26,1.77-2.12,2.92-3.42,2.51"/>
        <line class="cls-2" x1="44.35" y1="47.77" x2="29.97" y2="47.77"/>
        <line class="cls-2" x1="7.12" y1="7.34" x2="19.53" y2="2.77"/>
        <line class="cls-2" x1="23.5" y1="2.77" x2="38.15" y2="8.18"/>
      </g>
      <line class="cls-2" x1="27.43" y1="44.47" x2="27.43" y2="35.84"/>
    </g>
  </g>
</svg>