<?xml version="1.0" encoding="UTF-8"?>
<svg id="Layer_2" data-name="Layer 2" xmlns="http://www.w3.org/2000/svg" xmlns:xlink="http://www.w3.org/1999/xlink" viewBox="0 0 54.55 54.55">
  <defs>
    <style>
      .cls-1, .cls-2 {
        fill: none;
      }

      .cls-3 {
        clip-path: url(#clippath-1);
      }

      .cls-2 {
        stroke: #000;
        stroke-linecap: round;
        stroke-linejoin: round;
        stroke-width: 1.07px;
      }

      .cls-4 {
        clip-path: url(#clippath-2);
      }

      .cls-5 {
        clip-path: url(#clippath);
      }
    </style>
    <clipPath id="clippath">
      <rect class="cls-1" width="54.55" height="54.55"/>
    </clipPath>
    <clipPath id="clippath-1">
      <rect class="cls-1" width="54.55" height="54.55"/>
    </clipPath>
    <clipPath id="clippath-2">
      <rect class="cls-1" width="54.55" height="54.55"/>
    </clipPath>
  </defs>
  <g id="Layer_1-2" data-name="Layer 1">
    <g>
      <g class="cls-5">
        <path class="cls-2" d="M51.06,12.81c.36.7.52,1.18.59,1.58l.02.65"/>
        <path class="cls-2" d="M27.34,16.69c-.83,1.3-1.35,2.01-1.83,2.51-.78.63-1.54,1.07-2.56,1.46-.75.17-1.77.24-2.52.19-1-.21-2-.61-2.75-1.07-.76-.62-1.22-1.08-1.73-1.75l-.93-1.44"/>
        <path class="cls-2" d="M7.94,20.82c-.87-.2-1.62-.49-2.39-.92-.5-.37-.97-.81-1.59-1.55-.32-.5-.68-1.24-.92-1.99-.13-.74-.17-1.48-.11-2.21.06-.24.27-.72,1.42-2.97"/>
        <path class="cls-2" d="M51.67,15.04c-.04.59-.12,1.08-.29,1.72-.2.52-.44,1.03-.74,1.52-.64.8-1.03,1.15-1.54,1.55-.87.48-1.96.88-3.1,1.07-1.17-.05-2.13-.26-3.14-.66-.45-.25-.92-.56-1.7-1.25-.61-.75-1.01-1.41-1.66-2.76"/>
      </g>
      <line class="cls-2" x1="48.89" y1="34.76" x2="5.73" y2="34.78"/>
      <g class="cls-3">
        <line class="cls-2" x1="48.89" y1="34.76" x2="48.89" y2="51.85"/>
        <line class="cls-2" x1="48.89" y1="51.85" x2="5.69" y2="51.85"/>
        <line class="cls-2" x1="5.73" y1="34.78" x2="5.69" y2="51.85"/>
      </g>
      <line class="cls-2" x1="46" y1="34.73" x2="46" y2="20.9"/>
      <line class="cls-2" x1="8.58" y1="34.73" x2="8.58" y2="20.92"/>
      <g class="cls-4">
        <path class="cls-2" d="M14.94,16.57c-1,2.93-3.95,4.73-7.01,4.28"/>
        <path class="cls-2" d="M39.41,16.21c-.87,3.35-4.29,5.35-7.64,4.48-1.97-.52-3.58-1.96-4.29-3.88"/>
        <line class="cls-2" x1="8.69" y1="2.92" x2="45.88" y2="2.69"/>
        <line class="cls-2" x1="45.88" y1="2.69" x2="51.06" y2="12.81"/>
      </g>
      <line class="cls-2" x1="27.3" y1="15.46" x2="27.39" y2="16.61"/>
      <line class="cls-2" x1="4.35" y1="11.17" x2="8.69" y2="2.93"/>
    </g>
  </g>
</svg>