<?xml version="1.0" encoding="UTF-8"?>
<svg id="Layer_2" data-name="Layer 2" xmlns="http://www.w3.org/2000/svg" xmlns:xlink="http://www.w3.org/1999/xlink" viewBox="0 0 54.55 54.55">
  <defs>
    <style>
      .cls-1 {
        clip-path: url(#clippath-4);
      }

      .cls-2, .cls-3 {
        fill: none;
      }

      .cls-4 {
        clip-path: url(#clippath-1);
      }

      .cls-5 {
        clip-path: url(#clippath-5);
      }

      .cls-6 {
        clip-path: url(#clippath-3);
      }

      .cls-3 {
        stroke: #000;
        stroke-linecap: round;
        stroke-linejoin: round;
        stroke-width: 1.07px;
      }

      .cls-7 {
        clip-path: url(#clippath-2);
      }

      .cls-8 {
        clip-path: url(#clippath);
      }
    </style>
    <clipPath id="clippath">
      <rect class="cls-2" width="54.55" height="54.55"/>
    </clipPath>
    <clipPath id="clippath-1">
      <rect class="cls-2" width="54.55" height="54.55"/>
    </clipPath>
    <clipPath id="clippath-2">
      <rect class="cls-2" width="54.55" height="54.55"/>
    </clipPath>
    <clipPath id="clippath-3">
      <rect class="cls-2" width="54.55" height="54.55"/>
    </clipPath>
    <clipPath id="clippath-4">
      <rect class="cls-2" width="54.55" height="54.55"/>
    </clipPath>
    <clipPath id="clippath-5">
      <rect class="cls-2" width="54.55" height="54.55"/>
    </clipPath>
  </defs>
  <g id="Layer_1-2" data-name="Layer 1">
    <g>
      <g class="cls-8">
        <path class="cls-3" d="M32.5,33.23c-1.76-.94-4.5-2.29-6.82-3.4-1.38-.59-3.55-1.47-5.33-2.07-1.08-.31-1.99-.52-2.75-.65"/>
        <path class="cls-3" d="M11.95,27.11c-2.47-.01-3.82-.05-4.04-.1"/>
        <path class="cls-3" d="M7.9,27.01c-.64-.18-1.16-.39-1.8-.73-.5-.34-1.02-.76-1.52-1.25-.43-.5-.84-1.07-1.19-1.66-.32-.64-.55-1.27-.74-1.94-.09-.48-.13-1.01-.15-1.93.06-.72.18-1.37.36-2,.23-.61.54-1.25.9-1.84.4-.53.75-.94,1.32-1.48.42-.33,1.02-.73,1.48-.97.49-.2,1.05-.37,1.66-.5.48-.06.96-.1,1.44-.12"/>
        <path class="cls-3" d="M32.09,52.02c-.21-.09-.37-.21-.51-.39-.08-.25-.05-.68.21-1.52"/>
        <path class="cls-3" d="M33.8,43.67c.03-.41-.05-.66-.17-.88-.21-.23-.64-.6-1.29-1.13"/>
        <path class="cls-3" d="M27.53,37.88c-.15-.18-.25-.45-.21-.79.12-.22.28-.37.5-.48.13-.02.38-.04.74-.05"/>
        <path class="cls-3" d="M35.26,36.57c.27-.05.52-.15.85-.44.13-.22.32-.64.57-1.28"/>
        <path class="cls-3" d="M38.99,28.78c.21-.3.45-.45.64-.49.28.07.49.22.62.39l.44,1.11"/>
        <path class="cls-3" d="M42.51,34.6c.49,1.13.78,1.54,1.16,1.82.2.06.41.11.62.14"/>
        <path class="cls-3" d="M51.37,36.58c.24.07.5.28.64.53.04.3-.04.55-.14.68l-.73.59"/>
        <path class="cls-3" d="M46.08,42.36c-.41.42-.58.85-.58,1.22l.25.84"/>
        <path class="cls-3" d="M47.76,51.05c.03.26-.07.59-.23.78-.26.15-.52.18-.77.13l-.55-.34"/>
        <path class="cls-3" d="M40.86,47.86c-.6-.39-.8-.46-1.15-.53-.26,0-.53.06-.98.32"/>
        <path class="cls-3" d="M33.74,51.16c-.99.71-1.24.83-1.52.89"/>
        <path class="cls-3" d="M17.28,46.27c-2.07-.02-2.68-.16-3.2-.41-.49-.43-.87-.96-1.14-1.61l-.39-1.25"/>
        <path class="cls-3" d="M17.55,12.58c1.1-.19,2.54-.57,4.32-1.15,1.75-.66,4.36-1.77,6.03-2.52,1.32-.65,2.73-1.38,4.24-2.19"/>
        <path class="cls-3" d="M36.23,4.39c1.51-.89,2.68-1.63,3.11-1.83.39-.07.85,0,1.3.26l.3.28"/>
      </g>
      <line class="cls-3" x1="16.17" y1="27.06" x2="20.6" y2="42.6"/>
      <g class="cls-4">
        <path class="cls-3" d="M42.15,26.13c3.47-.85,5.6-4.36,4.75-7.83-.67-2.74-3.03-4.72-5.84-4.92"/>
      </g>
      <line class="cls-3" x1="40.95" y1="3.11" x2="41.06" y2="25.48"/>
      <line class="cls-3" x1="17.6" y1="27.11" x2="17.55" y2="12.58"/>
      <line class="cls-3" x1="17.6" y1="27.11" x2="11.95" y2="27.11"/>
      <line class="cls-3" x1="9.65" y1="12.59" x2="12.93" y2="12.58"/>
      <line class="cls-3" x1="31.79" y1="50.11" x2="33.8" y2="43.67"/>
      <g class="cls-7">
        <line class="cls-3" x1="32.09" y1="52.02" x2="32.22" y2="52.05"/>
      </g>
      <line class="cls-3" x1="32.34" y1="41.66" x2="27.52" y2="37.88"/>
      <g class="cls-6">
        <path class="cls-3" d="M20.6,42.6c.56,1.38-.1,2.95-1.48,3.51-.58.23-1.22.26-1.81.08"/>
      </g>
      <line class="cls-3" x1="28.55" y1="36.56" x2="35.26" y2="36.57"/>
      <line class="cls-3" x1="36.68" y1="34.85" x2="38.99" y2="28.78"/>
      <line class="cls-3" x1="40.69" y1="29.8" x2="42.51" y2="34.6"/>
      <g class="cls-1">
        <line class="cls-3" x1="44.29" y1="36.56" x2="51.37" y2="36.58"/>
        <line class="cls-3" x1="51.14" y1="38.38" x2="46.08" y2="42.36"/>
      </g>
      <line class="cls-3" x1="45.74" y1="44.42" x2="47.76" y2="51.05"/>
      <g class="cls-5">
        <line class="cls-3" x1="46.21" y1="51.62" x2="40.86" y2="47.86"/>
        <line class="cls-3" x1="38.74" y1="47.65" x2="33.74" y2="51.16"/>
      </g>
      <line class="cls-3" x1="12.55" y1="43" x2="8.24" y2="27.1"/>
      <line class="cls-3" x1="12.93" y1="12.58" x2="17.55" y2="12.58"/>
      <line class="cls-3" x1="32.14" y1="6.73" x2="36.23" y2="4.39"/>
    </g>
  </g>
</svg>