<?xml version="1.0" encoding="UTF-8"?>
<svg id="Layer_2" data-name="Layer 2" xmlns="http://www.w3.org/2000/svg" xmlns:xlink="http://www.w3.org/1999/xlink" viewBox="0 0 50.06 50.06">
  <defs>
    <style>
      .cls-1 {
        clip-path: url(#clippath-4);
      }

      .cls-2, .cls-3 {
        fill: none;
      }

      .cls-4 {
        clip-path: url(#clippath-1);
      }

      .cls-5 {
        clip-path: url(#clippath-3);
      }

      .cls-3 {
        stroke: #000;
        stroke-linecap: round;
        stroke-linejoin: round;
        stroke-width: 1.39px;
      }

      .cls-6 {
        clip-path: url(#clippath-2);
      }

      .cls-7 {
        clip-path: url(#clippath);
      }
    </style>
    <clipPath id="clippath">
      <rect class="cls-2" width="50.06" height="50.06"/>
    </clipPath>
    <clipPath id="clippath-1">
      <rect class="cls-2" width="50.06" height="50.06"/>
    </clipPath>
    <clipPath id="clippath-2">
      <rect class="cls-2" width="50.06" height="50.06"/>
    </clipPath>
    <clipPath id="clippath-3">
      <rect class="cls-2" width="50.06" height="50.06"/>
    </clipPath>
    <clipPath id="clippath-4">
      <rect class="cls-2" width="50.06" height="50.06"/>
    </clipPath>
  </defs>
  <g id="Layer_1-2" data-name="Layer 1">
    <g>
      <g class="cls-7">
        <path class="cls-3" d="M37.79,22.2c-.31-.89-.66-1.69-1.09-2.51-.44-.71-1.01-1.52-1.55-2.17-.6-.64-1.34-1.32-2-1.84-.81-.56-1.6-1.03-2.54-1.5-.94-.38-1.64-.61-3.66-1.09"/>
        <path class="cls-3" d="M11.27,36.46c.08.17.12.53.15,5.68.08.32.27.63.55.88.32.14.8.2,3.54.19.33-.07.5-.15.66-.25.3-.29.49-.63.56-.96l.03-3.92"/>
        <path class="cls-3" d="M6.04,29.54c-2.35-.02-2.84-.06-3.16-.18-.15-.1-.29-.24-.48-.54-.09-.33-.1-.64-.1-5.63.04-.31.18-.62.39-.89l.29-.27"/>
        <path class="cls-3" d="M32.1,43.53c-.49-.2-.85-.31-1.18-.36-.38,0-.74.06-1.07.18-.81.45-1.26.61-1.7.66-.46-.12-.76-.3-1-.56-1.21-1.86-1.46-2.27-1.56-2.51-.08-.3-.09-.51-.03-.84.11-.29.4-.67,1.31-1.43.37-.42.67-.99.84-1.71.03-.41.01-1.3-.06-1.73-.16-.49-.39-.89-.68-1.26-.86-.69-1.12-.96-1.35-1.37-.11-.49-.04-.92.12-1.29,1.14-1.77,1.46-2.21,1.73-2.45.23-.13.56-.23.82-.25.22.02.55.13,1.71.74.62.21.97.24,1.25.21.4-.1.9-.29,1.35-.55.39-.29.71-.62.97-.97.15-.32.26-.66.37-1.61.09-.37.25-.73.42-.95.26-.22.61-.37.94-.43.83-.02,2.74,0,3.1.09.34.18.59.44.84.86.08.32.12,1.03.17,1.33.13.4.32.75.62,1.15.4.37.81.64,1.29.87.44.14.86.21,1.13.22.33-.05.88-.25,1.93-.86.43-.12.67-.12,1-.07.44.21.64.39.86.66,1.24,1.9,1.42,2.28,1.51,2.81-.07.43-.3.86-.56,1.13-.57.44-.93.77-1.18,1.08-.26.46-.4.9-.47,1.28-.02.9.02,1.47.18,2.1.12.26.33.6.66.95.91.75,1.13.99,1.26,1.2.1.29.14.62.09.98-.09.27-.44.89-1.54,2.55-.33.34-.66.52-1.12.6-.43-.06-.8-.2-1.78-.73-.36-.11-.69-.15-1.17-.11-.45.13-1,.37-1.53.68-.29.21-.6.52-.97,1.09-.14.37-.22.68-.31,1.62-.1.31-.22.53-.43.8-.3.24-.59.37-.87.43"/>
        <path class="cls-3" d="M35.37,47.77c-.35-.05-.57-.13-.83-.29-.25-.26-.43-.54-.52-.81-.06-.27-.11-1.1-.22-1.48-.16-.34-.39-.68-.82-1.12-.28-.2-.57-.38-.87-.55"/>
      </g>
      <line class="cls-3" x1="17.98" y1="16.67" x2="27.01" y2="16.65"/>
      <g class="cls-4">
        <path class="cls-3" d="M14.82,13.87c-1.79-1.88-4.27-2.95-6.86-2.96"/>
      </g>
      <line class="cls-3" x1="19.42" y1="12.85" x2="14.84" y2="13.84"/>
      <g class="cls-6">
        <path class="cls-3" d="M26.83,13.04c-2.22,1.63-5.27,1.54-7.39-.21"/>
      </g>
      <line class="cls-3" x1="16.76" y1="38.07" x2="23.01" y2="38.78"/>
      <g class="cls-5">
        <path class="cls-3" d="M11.31,36.4c-2.46-1.65-4.32-4.06-5.28-6.86"/>
      </g>
      <line class="cls-3" x1="5.96" y1="21.99" x2="2.98" y2="22.02"/>
      <line class="cls-3" x1="9.25" y1="17.23" x2="5.96" y2="21.99"/>
      <line class="cls-3" x1="9.25" y1="17.23" x2="7.96" y2="10.95"/>
      <g class="cls-1">
        <path class="cls-3" d="M27.05,12.86c2.54-2.08,2.92-5.83.84-8.37-2.08-2.55-5.83-2.92-8.37-.84-2.55,2.08-2.92,5.83-.84,8.38.23.29.49.55.78.79"/>
        <line class="cls-3" x1="38.01" y1="47.76" x2="35.37" y2="47.77"/>
        <path class="cls-3" d="M36.65,32.64c2.26,0,4.1,1.83,4.1,4.1s-1.83,4.1-4.1,4.1-4.1-1.83-4.1-4.1,1.83-4.1,4.1-4.1Z"/>
      </g>
    </g>
  </g>
</svg>