<?xml version="1.0" encoding="UTF-8"?>
<svg id="Layer_2" data-name="Layer 2" xmlns="http://www.w3.org/2000/svg" xmlns:xlink="http://www.w3.org/1999/xlink" viewBox="0 0 56.54 56.54">
  <defs>
    <style>
      .cls-1, .cls-2 {
        fill: none;
      }

      .cls-3 {
        clip-path: url(#clippath-1);
      }

      .cls-2 {
        stroke: #000;
        stroke-linecap: round;
        stroke-linejoin: round;
        stroke-width: 1.11px;
      }

      .cls-4 {
        clip-path: url(#clippath-2);
      }

      .cls-5 {
        clip-path: url(#clippath);
      }
    </style>
    <clipPath id="clippath">
      <rect class="cls-1" width="56.54" height="56.54"/>
    </clipPath>
    <clipPath id="clippath-1">
      <rect class="cls-1" width="56.54" height="56.54"/>
    </clipPath>
    <clipPath id="clippath-2">
      <rect class="cls-1" width="56.54" height="56.54"/>
    </clipPath>
  </defs>
  <g id="Layer_1-2" data-name="Layer 1">
    <g>
      <g class="cls-5">
        <path class="cls-2" d="M7.28,13.96c-.97.05-1.45.14-1.94.31-.49.24-.97.56-1.6,1.17-.48.72-.7,1.2-.84,1.67-.07.48-.11,1.36-.12,2.67"/>
        <path class="cls-2" d="M2.78,44.5c.02.55.13,1.23.27,1.71.22.49.53.98.92,1.46.69.59,1.43.99,1.92,1.17.49.11,1.22.18,3.18.19"/>
        <path class="cls-2" d="M49.02,49.02c.73-.02,1.22-.09,1.72-.21.5-.2,1.01-.48,1.5-.85.64-.69,1.1-1.45,1.3-1.94.13-.49.21-1.23.22-2.95"/>
        <path class="cls-2" d="M53.75,18.31c-.06-.98-.18-1.47-.37-1.97-.27-.49-.64-.97-1.34-1.61-.74-.42-1.24-.61-1.73-.72-.48-.04-1.3-.07-2.44-.07"/>
        <path class="cls-2" d="M47.87,13.93c-6.62-.01-7.12-.04-7.63-.17-.49-.3-.88-.74-1.18-1.24-1.94-3.69-2.26-4.17-2.71-4.61-.25-.15-.74-.32-1.47-.39"/>
        <path class="cls-2" d="M21.69,7.53c-.69.04-1.16.16-1.62.44-.21.2-.7.92-2.63,4.6l-.61.98"/>
      </g>
      <line class="cls-2" x1="16.49" y1="13.7" x2="7.28" y2="13.96"/>
      <line class="cls-2" x1="16.49" y1="13.7" x2="16.84" y2="13.55"/>
      <line class="cls-2" x1="44.54" y1="11.8" x2="50" y2="11.82"/>
      <g class="cls-3">
        <path class="cls-2" d="M28.27,17.36c7.46,0,13.51,6.05,13.51,13.51s-6.05,13.5-13.51,13.5-13.51-6.05-13.51-13.5,6.05-13.51,13.51-13.51Z"/>
        <line class="cls-2" x1="2.78" y1="19.78" x2="2.78" y2="44.5"/>
      </g>
      <line class="cls-2" x1="9.07" y1="49.02" x2="49.02" y2="49.02"/>
      <g class="cls-4">
        <line class="cls-2" x1="53.75" y1="43.06" x2="53.75" y2="18.31"/>
      </g>
      <line class="cls-2" x1="34.88" y1="7.53" x2="21.7" y2="7.53"/>
    </g>
  </g>
</svg>