<?xml version="1.0" encoding="UTF-8"?>
<svg id="Layer_2" data-name="Layer 2" xmlns="http://www.w3.org/2000/svg" xmlns:xlink="http://www.w3.org/1999/xlink" viewBox="0 0 59.82 59.82">
  <defs>
    <style>
      .cls-1, .cls-2 {
        fill: none;
      }

      .cls-3 {
        clip-path: url(#clippath-1);
      }

      .cls-2 {
        stroke: #000;
        stroke-linecap: round;
        stroke-linejoin: round;
        stroke-width: 1.17px;
      }

      .cls-4 {
        clip-path: url(#clippath);
      }
    </style>
    <clipPath id="clippath">
      <rect class="cls-1" width="59.82" height="59.82"/>
    </clipPath>
    <clipPath id="clippath-1">
      <rect class="cls-1" width="59.82" height="59.82"/>
    </clipPath>
  </defs>
  <g id="Layer_1-2" data-name="Layer 1">
    <g>
      <g class="cls-4">
        <path class="cls-2" d="M56.46,47.54c-1.41.65-1.85.8-2.36.89-.68.02-2.72.03-6.12.04"/>
        <path class="cls-2" d="M10.76,48.46c-4.33-.01-5.09-.05-5.6-.14-.3-.11-.92-.41-1.85-.91"/>
        <path class="cls-2" d="M56.57,12.42c.19,1.16.28,2.8.29,4.92"/>
        <line class="cls-2" x1="56.85" y1="45.52" x2="56.46" y2="47.54"/>
        <path class="cls-2" d="M56.48,12.37c-1.46-.77-1.71-.86-2.22-.96l-6.11-.05"/>
        <path class="cls-2" d="M5.62,11.4c-.48.06-.89.22-2.27,1.1"/>
        <path class="cls-2" d="M33.39,31.68c-.89.68-2.09,1.35-2.58,1.52-.41.09-.88.13-1.42.1-.79-.19-1.66-.6-2.42-1.12l-1.67-1.37"/>
        <line class="cls-2" x1="56.48" y1="12.37" x2="33.39" y2="31.68"/>
        <line class="cls-2" x1="56.46" y1="47.54" x2="35.87" y2="29.63"/>
        <line class="cls-2" x1="23.93" y1="29.66" x2="3.3" y2="47.41"/>
        <line class="cls-2" x1="3.3" y1="47.41" x2="3.12" y2="12.66"/>
      </g>
      <line class="cls-2" x1="47.98" y1="48.47" x2="10.76" y2="48.46"/>
      <g class="cls-3">
        <line class="cls-2" x1="25.31" y1="30.81" x2="3.36" y2="12.5"/>
        <line class="cls-2" x1="56.85" y1="17.34" x2="56.85" y2="45.52"/>
      </g>
      <line class="cls-2" x1="48.15" y1="11.36" x2="5.62" y2="11.4"/>
    </g>
  </g>
</svg>