<?xml version="1.0" encoding="UTF-8"?>
<svg id="Layer_2" data-name="Layer 2" xmlns="http://www.w3.org/2000/svg" xmlns:xlink="http://www.w3.org/1999/xlink" viewBox="0 0 50.06 50.06">
  <defs>
    <style>
      .cls-1, .cls-2 {
        fill: none;
      }

      .cls-3 {
        clip-path: url(#clippath-1);
      }

      .cls-2 {
        stroke: #000;
        stroke-linecap: round;
        stroke-linejoin: round;
        stroke-width: 1.42px;
      }

      .cls-4 {
        clip-path: url(#clippath);
      }
    </style>
    <clipPath id="clippath">
      <rect class="cls-1" width="50.06" height="50.06"/>
    </clipPath>
    <clipPath id="clippath-1">
      <rect class="cls-1" width="50.06" height="50.06"/>
    </clipPath>
  </defs>
  <g id="Layer_1-2" data-name="Layer 1">
    <g>
      <g class="cls-4">
        <path class="cls-2" d="M27.53,29c.05-.85.04-3.68-.07-4.61-.25-.98-.46-1.53-.75-2.15-.31-.53-.63-.98-.99-1.42-.46-.48-.94-.91-1.44-1.29-.89-.55-1.78-.95-2.72-1.26-.88-.17-1.28-.2-1.5-.18-2.27.48-3.05.56-3.68.58-.78-.02-1.56-.11-2.36-.24-1.54-.33-2.07-.37-2.79-.27-.98.29-1.76.61-2.6,1.06-.73.5-1.47,1.14-2.07,1.79-.51.69-.97,1.5-1.25,2.13-.23.69-.41,1.51-.48,2.13-.02.59,0,2.87.05,3.72"/>
        <path class="cls-2" d="M12.81,3.59c-.49.4-.9.8-1.23,1.18-.34.49-.65,1.06-.86,1.54-.15.42-.32,1.1-.41,1.74-.03.59-.01,1.16.06,1.77.14.65.31,1.22.56,1.8.25.46.61,1.03.89,1.39.36.39.83.81,1.32,1.15.56.31.99.5,1.57.7.58.12,1.06.18,1.75.19.43-.04,1.02-.15,1.6-.32.95-.43,1.51-.79,1.94-1.13.39-.38.88-.96,1.17-1.4.3-.56.57-1.23.74-1.8.12-.57.2-1.27.21-1.78-.05-.69-.15-1.32-.33-1.98-.25-.64-.55-1.23-.91-1.77-.39-.48-.84-.93-1.27-1.27-.53-.35-1.12-.65-1.67-.86-.64-.17-1.23-.25-1.82-.27-.65.06-1.14.15-1.69.3-.51.19-1.11.5-1.63.83"/>
      </g>
      <line class="cls-2" x1="27.53" y1="29" x2="4.88" y2="29.01"/>
      <g class="cls-3">
        <circle class="cls-2" cx="41.64" cy="43.99" r="3.6" transform="translate(-5.19 82.41) rotate(-85.93)"/>
        <path class="cls-2" d="M21.24,40.46c-1.95.34-3.26,2.19-2.92,4.14.34,1.95,2.19,3.26,4.14,2.92,1.95-.34,3.26-2.19,2.92-4.14-.3-1.71-1.78-2.97-3.52-2.97"/>
        <path class="cls-2" d="M41.63,20.64c2,0,3.62,1.62,3.62,3.62s-1.62,3.62-3.62,3.62-3.62-1.62-3.62-3.62,1.62-3.62,3.62-3.62Z"/>
      </g>
      <line class="cls-2" x1="38" y1="24.24" x2="33" y2="24.26"/>
      <line class="cls-2" x1="33" y1="24.26" x2="32.98" y2="43.87"/>
      <line class="cls-2" x1="32.98" y1="34.57" x2="21.87" y2="34.65"/>
      <line class="cls-2" x1="21.87" y1="40.36" x2="21.87" y2="34.65"/>
      <line class="cls-2" x1="38.02" y1="43.94" x2="32.98" y2="43.87"/>
      <line class="cls-2" x1="21.25" y1="40.47" x2="21.85" y2="40.36"/>
    </g>
  </g>
</svg>