<?xml version="1.0" encoding="UTF-8"?>
<svg id="Layer_2" data-name="Layer 2" xmlns="http://www.w3.org/2000/svg" xmlns:xlink="http://www.w3.org/1999/xlink" viewBox="0 0 54.19 54.19">
  <defs>
    <style>
      .cls-1 {
        clip-path: url(#clippath-4);
      }

      .cls-2, .cls-3 {
        fill: none;
      }

      .cls-4 {
        clip-path: url(#clippath-1);
      }

      .cls-3 {
        stroke: #000;
        stroke-linecap: round;
        stroke-linejoin: round;
        stroke-width: 1.08px;
      }

      .cls-5 {
        clip-path: url(#clippath-3);
      }

      .cls-6 {
        clip-path: url(#clippath-2);
      }

      .cls-7 {
        clip-path: url(#clippath);
      }
    </style>
    <clipPath id="clippath">
      <rect class="cls-2" width="54.19" height="54.19"/>
    </clipPath>
    <clipPath id="clippath-1">
      <rect class="cls-2" width="54.19" height="54.19"/>
    </clipPath>
    <clipPath id="clippath-2">
      <rect class="cls-2" width="54.19" height="54.19"/>
    </clipPath>
    <clipPath id="clippath-3">
      <rect class="cls-2" width="54.19" height="54.19"/>
    </clipPath>
    <clipPath id="clippath-4">
      <rect class="cls-2" width="54.19" height="54.19"/>
    </clipPath>
  </defs>
  <g id="Layer_1-2" data-name="Layer 1">
    <g>
      <g class="cls-7">
        <path class="cls-3" d="M35.72,40.58c-.27-.67-.64-1.27-2.67-3.99"/>
        <path class="cls-3" d="M22.48,22.71c-.42-.39-.82-.59-1.02-.62-.18,0-.55.06-.97.27"/>
        <path class="cls-3" d="M3.86,46.34c.02.63.12,1.2.26,1.7.25.61.57,1.16.92,1.64.43.46.85.82,1.27,1.11.52.27,1.02.47,1.61.63.56.07,1.48.11,2.75.11"/>
        <path class="cls-3" d="M45.06,51.53c.63-.02,1.15-.1,1.88-.29.46-.19.99-.49,1.43-.79.45-.4.9-.92,1.22-1.37.26-.49.49-1.08.62-1.57.08-.6.13-1.54.13-2.81"/>
        <path class="cls-3" d="M50.34,12c-.01-.54-.1-1.19-.23-1.69-.26-.66-.55-1.2-.85-1.62-.36-.42-.86-.87-1.31-1.18-.51-.28-.98-.48-1.57-.65-.51-.07-1.36-.1-2.57-.11"/>
        <path class="cls-3" d="M9.36,6.75c-1.18.07-1.77.18-2.16.29-.38.15-.89.42-1.63.96-.41.41-.72.78-1.24,1.65-.17.41-.33.91-.47,1.86"/>
        <line class="cls-3" x1="50.34" y1="16" x2="3.86" y2="16"/>
      </g>
      <line class="cls-3" x1="3.86" y1="16.72" x2="3.86" y2="46.34"/>
      <g class="cls-4">
        <line class="cls-3" x1="13.88" y1="11.11" x2="13.88" y2="2.68"/>
      </g>
      <line class="cls-3" x1="40.29" y1="11.09" x2="40.29" y2="5.71"/>
      <g class="cls-6">
        <line class="cls-3" x1="40.29" y1="5.71" x2="40.29" y2="2.67"/>
      </g>
      <line class="cls-3" x1="35.72" y1="40.58" x2="14.46" y2="45.33"/>
      <line class="cls-3" x1="20.5" y1="22.36" x2="14.46" y2="45.33"/>
      <line class="cls-3" x1="26.72" y1="28.32" x2="15.97" y2="39.02"/>
      <line class="cls-3" x1="33.05" y1="36.59" x2="22.49" y2="22.71"/>
      <line class="cls-3" x1="35.11" y1="25.62" x2="35.83" y2="22.58"/>
      <line class="cls-3" x1="39.3" y1="26.34" x2="42.77" y2="22.82"/>
      <line class="cls-3" x1="3.86" y1="11.51" x2="3.86" y2="16.73"/>
      <g class="cls-5">
        <path class="cls-3" d="M41.76,29.85c1.07,0,1.94.87,1.94,1.94s-.87,1.94-1.94,1.94-1.94-.87-1.94-1.94.87-1.94,1.94-1.94Z"/>
      </g>
      <line class="cls-3" x1="43.41" y1="32.82" x2="43.53" y2="32.63"/>
      <line class="cls-3" x1="10.67" y1="51.53" x2="45.05" y2="51.53"/>
      <g class="cls-1">
        <line class="cls-3" x1="50.34" y1="44.68" x2="50.34" y2="12"/>
      </g>
      <line class="cls-3" x1="43.81" y1="6.75" x2="9.36" y2="6.75"/>
    </g>
  </g>
</svg>