<?xml version="1.0" encoding="UTF-8"?>
<svg id="Layer_2" data-name="Layer 2" xmlns="http://www.w3.org/2000/svg" xmlns:xlink="http://www.w3.org/1999/xlink" viewBox="0 0 53.77 53.77">
  <defs>
    <style>
      .cls-1, .cls-2 {
        fill: none;
      }

      .cls-3 {
        clip-path: url(#clippath-1);
      }

      .cls-4 {
        clip-path: url(#clippath-3);
      }

      .cls-2 {
        stroke: #000;
        stroke-linecap: round;
        stroke-linejoin: round;
        stroke-width: 1.07px;
      }

      .cls-5 {
        clip-path: url(#clippath-2);
      }

      .cls-6 {
        clip-path: url(#clippath);
      }
    </style>
    <clipPath id="clippath">
      <rect class="cls-1" width="53.77" height="53.77"/>
    </clipPath>
    <clipPath id="clippath-1">
      <rect class="cls-1" width="53.77" height="53.77"/>
    </clipPath>
    <clipPath id="clippath-2">
      <rect class="cls-1" width="53.77" height="53.77"/>
    </clipPath>
    <clipPath id="clippath-3">
      <rect class="cls-1" width="53.77" height="53.77"/>
    </clipPath>
  </defs>
  <g id="Layer_1-2" data-name="Layer 1">
    <g>
      <g class="cls-6">
        <path class="cls-2" d="M50.23,40.14c.55.56.73.87.82,1.18.04.27.05.94.05,2.01"/>
        <path class="cls-2" d="M51.11,48.66c-.08.49-.25.95-.49,1.26-.4.33-.73.5-1.1.59l-1.34.04"/>
        <path class="cls-2" d="M4.41,50.53c-.53-.12-.85-.28-1.12-.48-.32-.37-.49-.71-.6-1.14l-.04-1.17"/>
        <path class="cls-2" d="M2.66,41.73c.07-.46.24-.87.51-1.22l.5-.44"/>
        <path class="cls-2" d="M3.63,39.9c-.15-.71-.23-1.89-.24-3.56"/>
        <path class="cls-2" d="M3.4,6.11c.04-.79.2-1.39.58-1.98.36-.34.77-.61,1.36-.83.29-.04.78-.06,1.45-.07"/>
        <path class="cls-2" d="M46.45,22.73c-1.94,1.27-2.52,1.77-3.05,2.35-.46.6-.98,1.41-1.39,2.2-.51,1.2-.92,2.4-1.24,3.61-.3,1.4-.55,3-.68,4.2-.09,1.33-.14,2.93-.15,4.79"/>
        <path class="cls-2" d="M46.45,22.73c-2.44-1.11-3.46-1.73-4.25-2.32-1.01-.91-1.95-1.91-2.74-2.92-.83-1.23-1.62-2.63-2.29-4.03-.64-1.6-1.17-3.21-1.6-4.82-.37-1.8-.61-3.41-.81-5.42"/>
        <path class="cls-2" d="M19.09,3.23c-.29,2.27-.49,3.57-.8,5.07-.36,1.43-.83,2.93-1.34,4.33-.48,1.08-.92,2.02-1.34,2.82"/>
        <path class="cls-2" d="M47.35,3.23c.8.03,1.41.18,1.83.39.2.15.59.51.88.92.22.63.28,1.23.28,2.24"/>
        <path class="cls-2" d="M13.3,32.14c-.42-1.81-.93-3.41-1.52-4.84-.66-1.2-1.22-2-1.94-2.81-.41-.36-1.2-.96-2.35-1.81"/>
      </g>
      <line class="cls-2" x1="49.98" y1="39.91" x2="3.86" y2="39.9"/>
      <line class="cls-2" x1="50.36" y1="22.77" x2="46.45" y2="22.73"/>
      <line class="cls-2" x1="7.29" y1="22.68" x2="3.39" y2="22.77"/>
      <line class="cls-2" x1="13.9" y1="39.88" x2="13.3" y2="32.14"/>
      <g class="cls-3">
        <line class="cls-2" x1="51.11" y1="43.33" x2="51.11" y2="48.66"/>
        <line class="cls-2" x1="48.19" y1="50.55" x2="4.41" y2="50.53"/>
      </g>
      <line class="cls-2" x1="50.35" y1="6.78" x2="50.25" y2="39.91"/>
      <g class="cls-5">
        <line class="cls-2" x1="2.65" y1="47.75" x2="2.66" y2="41.73"/>
        <path class="cls-2" d="M15.58,15.44c-1.65,3.4-4.57,6.01-8.12,7.27"/>
      </g>
      <line class="cls-2" x1="3.39" y1="36.34" x2="3.4" y2="6.11"/>
      <g class="cls-4">
        <line class="cls-2" x1="6.79" y1="3.24" x2="47.35" y2="3.23"/>
      </g>
    </g>
  </g>
</svg>