<?xml version="1.0" encoding="UTF-8"?>
<svg id="Layer_2" data-name="Layer 2" xmlns="http://www.w3.org/2000/svg" xmlns:xlink="http://www.w3.org/1999/xlink" viewBox="0 0 53.77 53.77">
  <defs>
    <style>
      .cls-1 {
        clip-path: url(#clippath-6);
      }

      .cls-2 {
        clip-path: url(#clippath-7);
      }

      .cls-3 {
        clip-path: url(#clippath-4);
      }

      .cls-4, .cls-5 {
        fill: none;
      }

      .cls-6 {
        clip-path: url(#clippath-1);
      }

      .cls-7 {
        clip-path: url(#clippath-5);
      }

      .cls-8 {
        clip-path: url(#clippath-8);
      }

      .cls-9 {
        clip-path: url(#clippath-3);
      }

      .cls-5 {
        stroke: #000;
        stroke-linecap: round;
        stroke-linejoin: round;
        stroke-width: 1.07px;
      }

      .cls-10 {
        clip-path: url(#clippath-2);
      }

      .cls-11 {
        clip-path: url(#clippath);
      }
    </style>
    <clipPath id="clippath">
      <rect class="cls-4" width="53.77" height="53.77"/>
    </clipPath>
    <clipPath id="clippath-1">
      <rect class="cls-4" width="53.77" height="53.77"/>
    </clipPath>
    <clipPath id="clippath-2">
      <rect class="cls-4" width="53.77" height="53.77"/>
    </clipPath>
    <clipPath id="clippath-3">
      <rect class="cls-4" width="53.77" height="53.77"/>
    </clipPath>
    <clipPath id="clippath-4">
      <rect class="cls-4" width="53.77" height="53.77"/>
    </clipPath>
    <clipPath id="clippath-5">
      <rect class="cls-4" width="53.77" height="53.77"/>
    </clipPath>
    <clipPath id="clippath-6">
      <rect class="cls-4" width="53.77" height="53.77"/>
    </clipPath>
    <clipPath id="clippath-7">
      <rect class="cls-4" width="53.77" height="53.77"/>
    </clipPath>
    <clipPath id="clippath-8">
      <rect class="cls-4" width="53.77" height="53.77"/>
    </clipPath>
  </defs>
  <g id="Layer_1-2" data-name="Layer 1">
    <g>
      <g class="cls-11">
        <line class="cls-5" x1="31.83" y1="48.78" x2="3.47" y2="48.43"/>
        <path class="cls-5" d="M3.47,48.43c-.15-.1-.19-.14-.32-.26"/>
        <path class="cls-5" d="M3.15,48.17c-.06-.07-.12-.14-.17-.21"/>
        <path class="cls-5" d="M2.98,47.96c-.05-.07-.09-.15-.12-.23"/>
        <path class="cls-5" d="M2.83,47.73c-1.31-8.3,4.35-16.1,12.66-17.41.57-.09,1.13-.15,1.71-.17"/>
      </g>
      <line class="cls-5" x1="45.86" y1="46.92" x2="46.34" y2="47.7"/>
      <line class="cls-5" x1="45.86" y1="46.92" x2="45.78" y2="46.7"/>
      <line class="cls-5" x1="45.78" y1="46.7" x2="45.73" y2="46.5"/>
      <g class="cls-6">
        <path class="cls-5" d="M45.73,46.5c-.06-.27-.06-.55-.02-.82"/>
      </g>
      <line class="cls-5" x1="45.71" y1="45.68" x2="45.76" y2="45.48"/>
      <line class="cls-5" x1="45.76" y1="45.48" x2="45.83" y2="45.27"/>
      <line class="cls-5" x1="45.83" y1="45.27" x2="45.92" y2="45.06"/>
      <line class="cls-5" x1="45.92" y1="45.06" x2="46.05" y2="44.85"/>
      <line class="cls-5" x1="46.05" y1="44.85" x2="46.21" y2="44.64"/>
      <line class="cls-5" x1="46.21" y1="44.64" x2="46.39" y2="44.45"/>
      <line class="cls-5" x1="46.39" y1="44.45" x2="46.6" y2="44.28"/>
      <line class="cls-5" x1="46.6" y1="44.28" x2="46.8" y2="44.14"/>
      <line class="cls-5" x1="46.8" y1="44.14" x2="47.01" y2="44.04"/>
      <g class="cls-10">
        <path class="cls-5" d="M47.01,44.04c.28-.12.49-.16.65-.18"/>
        <path class="cls-5" d="M47.66,43.86c.24-.02.48,0,.71.05"/>
      </g>
      <line class="cls-5" x1="48.37" y1="43.9" x2="48.58" y2="43.96"/>
      <line class="cls-5" x1="48.58" y1="43.96" x2="48.79" y2="44.04"/>
      <line class="cls-5" x1="48.79" y1="44.04" x2="49.01" y2="44.16"/>
      <line class="cls-5" x1="49.01" y1="44.16" x2="49.22" y2="44.3"/>
      <line class="cls-5" x1="49.22" y1="44.3" x2="49.42" y2="44.47"/>
      <line class="cls-5" x1="49.42" y1="44.47" x2="49.6" y2="44.66"/>
      <g class="cls-9">
        <line class="cls-5" x1="49.6" y1="44.66" x2="49.75" y2="44.87"/>
        <line class="cls-5" x1="49.75" y1="44.87" x2="49.87" y2="45.08"/>
        <line class="cls-5" x1="49.87" y1="45.08" x2="49.97" y2="45.3"/>
        <line class="cls-5" x1="49.97" y1="45.3" x2="50.04" y2="45.52"/>
        <line class="cls-5" x1="50.04" y1="45.52" x2="50.08" y2="45.73"/>
        <line class="cls-5" x1="50.08" y1="45.73" x2="50.1" y2="45.95"/>
        <line class="cls-5" x1="50.1" y1="45.95" x2="50.11" y2="46.16"/>
        <line class="cls-5" x1="50.11" y1="46.16" x2="50.09" y2="46.37"/>
        <line class="cls-5" x1="50.09" y1="46.37" x2="50.04" y2="46.58"/>
        <line class="cls-5" x1="50.04" y1="46.58" x2="49.98" y2="46.8"/>
        <line class="cls-5" x1="49.98" y1="46.8" x2="49.88" y2="47.03"/>
        <line class="cls-5" x1="49.88" y1="47.03" x2="49.76" y2="47.24"/>
        <line class="cls-5" x1="49.76" y1="47.24" x2="49.61" y2="47.45"/>
        <line class="cls-5" x1="49.61" y1="47.45" x2="49.45" y2="47.63"/>
      </g>
      <line class="cls-5" x1="49.45" y1="47.63" x2="49.25" y2="47.8"/>
      <line class="cls-5" x1="49.25" y1="47.8" x2="49.04" y2="47.95"/>
      <line class="cls-5" x1="49.04" y1="47.95" x2="48.81" y2="48.07"/>
      <line class="cls-5" x1="48.82" y1="48.07" x2="48.6" y2="48.16"/>
      <line class="cls-5" x1="48.6" y1="48.16" x2="48.38" y2="48.22"/>
      <g class="cls-3">
        <path class="cls-5" d="M48.38,48.22c-.14.03-.28.04-.41.05"/>
        <path class="cls-5" d="M47.96,48.26c-.14,0-.28,0-.42-.03"/>
      </g>
      <line class="cls-5" x1="47.54" y1="48.23" x2="47.33" y2="48.19"/>
      <line class="cls-5" x1="47.33" y1="48.19" x2="47.12" y2="48.12"/>
      <line class="cls-5" x1="47.12" y1="48.12" x2="46.34" y2="47.7"/>
      <g class="cls-7">
        <path class="cls-5" d="M37.54,47.5c-.8-.95-.68-2.38.27-3.18.38-.32.85-.5,1.35-.53"/>
        <path class="cls-5" d="M37.54,47.5c.81.93,2.23,1.04,3.16.23.11-.09.21-.2.29-.31"/>
        <path class="cls-5" d="M40.99,47.41c.76-.96.6-2.36-.36-3.12-.08-.06-.17-.12-.25-.17"/>
      </g>
      <line class="cls-5" x1="40.37" y1="44.11" x2="39.21" y2="43.7"/>
      <g class="cls-1">
        <line class="cls-5" x1="51.12" y1="31.27" x2="36.42" y2="31.33"/>
        <line class="cls-5" x1="51.12" y1="31.27" x2="49.12" y2="40.95"/>
      </g>
      <line class="cls-5" x1="49.12" y1="40.95" x2="38.57" y2="40.95"/>
      <line class="cls-5" x1="39.14" y1="43.68" x2="35.56" y2="27.63"/>
      <line class="cls-5" x1="33.23" y1="27.62" x2="35.56" y2="27.63"/>
      <g class="cls-2">
        <circle class="cls-5" cx="20.39" cy="15.8" r="10.8"/>
      </g>
      <line class="cls-5" x1="17.19" y1="30.15" x2="23.02" y2="30.16"/>
      <g class="cls-8">
        <path class="cls-5" d="M23.02,30.15c4.86.34,9.3,2.84,12.11,6.82"/>
      </g>
    </g>
  </g>
</svg>