<?xml version="1.0" encoding="UTF-8"?>
<svg id="Layer_2" data-name="Layer 2" xmlns="http://www.w3.org/2000/svg" xmlns:xlink="http://www.w3.org/1999/xlink" viewBox="0 0 59.82 59.82">
  <defs>
    <style>
      .cls-1 {
        clip-path: url(#clippath-4);
      }

      .cls-2, .cls-3 {
        fill: none;
      }

      .cls-4 {
        clip-path: url(#clippath-1);
      }

      .cls-5 {
        clip-path: url(#clippath-5);
      }

      .cls-6 {
        clip-path: url(#clippath-3);
      }

      .cls-3 {
        stroke: #000;
        stroke-linecap: round;
        stroke-linejoin: round;
        stroke-width: 1.17px;
      }

      .cls-7 {
        clip-path: url(#clippath-2);
      }

      .cls-8 {
        clip-path: url(#clippath);
      }
    </style>
    <clipPath id="clippath">
      <rect class="cls-2" width="59.82" height="59.82"/>
    </clipPath>
    <clipPath id="clippath-1">
      <rect class="cls-2" width="59.82" height="59.82"/>
    </clipPath>
    <clipPath id="clippath-2">
      <rect class="cls-2" width="59.82" height="59.82"/>
    </clipPath>
    <clipPath id="clippath-3">
      <rect class="cls-2" width="59.82" height="59.82"/>
    </clipPath>
    <clipPath id="clippath-4">
      <rect class="cls-2" width="59.82" height="59.82"/>
    </clipPath>
    <clipPath id="clippath-5">
      <rect class="cls-2" width="59.82" height="59.82"/>
    </clipPath>
  </defs>
  <g id="Layer_1-2" data-name="Layer 1">
    <g>
      <g class="cls-8">
        <path class="cls-3" d="M52.86,54.75c.48-.01.97-.09,1.76-.35.34-.17.82-.5,1.18-.84.3-.35.7-1.05.99-1.99.05-.39.08-1.07.09-2.04"/>
        <path class="cls-3" d="M56.87,9.45c-.03-.97-.12-1.45-.28-1.94-.24-.49-.57-.96-1.21-1.59-.75-.46-1.23-.65-1.71-.77-.48-.05-1.28-.07-2.41-.08"/>
        <path class="cls-3" d="M7.3,5.08c-1.07.05-1.83.25-2.31.46-.47.29-1.13.91-1.62,1.63-.21.47-.33.93-.41,1.64v1.69"/>
        <line class="cls-3" x1="56.87" y1="17.74" x2="2.95" y2="17.87"/>
        <line class="cls-3" x1="2.95" y1="18.3" x2="2.95" y2="50.75"/>
        <path class="cls-3" d="M9.66,10.23c-.71-.09-1.35.41-1.44,1.12s.41,1.35,1.12,1.44c.71.09,1.35-.41,1.44-1.12.07-.6-.27-1.16-.84-1.37"/>
      </g>
      <line class="cls-3" x1="9.66" y1="10.23" x2="9.98" y2="10.23"/>
      <g class="cls-4">
        <path class="cls-3" d="M15.2,12.59c-.59-.4-.74-1.21-.33-1.8.4-.59,1.21-.74,1.8-.33.59.4.74,1.21.33,1.8-.32.46-.9.67-1.44.51"/>
      </g>
      <line class="cls-3" x1="15.2" y1="12.58" x2="15.53" y2="12.84"/>
      <g class="cls-7">
        <path class="cls-3" d="M23.67,11c.27.66-.04,1.43-.7,1.7-.66.27-1.43-.04-1.7-.7-.28-.66.04-1.43.7-1.7.19-.08.4-.11.61-.1"/>
      </g>
      <line class="cls-3" x1="23.75" y1="10.96" x2="22.58" y2="10.13"/>
      <line class="cls-3" x1="51.19" y1="25.31" x2="9.93" y2="25.31"/>
      <line class="cls-3" x1="9.94" y1="48.26" x2="9.93" y2="25.31"/>
      <line class="cls-3" x1="51.19" y1="25.31" x2="51.19" y2="35.12"/>
      <line class="cls-3" x1="33.63" y1="35.12" x2="51.18" y2="35.12"/>
      <line class="cls-3" x1="33.54" y1="41.12" x2="50.87" y2="41.12"/>
      <line class="cls-3" x1="33.46" y1="47.13" x2="45.96" y2="47.15"/>
      <g class="cls-6">
        <path class="cls-3" d="M2.93,50.75c-.03,2.2,1.73,4.01,3.93,4.04.35,0,.7-.04,1.05-.13"/>
      </g>
      <line class="cls-3" x1="7.93" y1="54.75" x2="52.86" y2="54.75"/>
      <g class="cls-1">
        <line class="cls-3" x1="56.87" y1="49.54" x2="56.87" y2="9.45"/>
      </g>
      <line class="cls-3" x1="51.27" y1="5.08" x2="7.3" y2="5.08"/>
      <g class="cls-5">
        <line class="cls-3" x1="2.95" y1="10.5" x2="2.95" y2="18.3"/>
      </g>
    </g>
  </g>
</svg>