<?xml version="1.0" encoding="UTF-8"?>
<svg id="Layer_2" data-name="Layer 2" xmlns="http://www.w3.org/2000/svg" xmlns:xlink="http://www.w3.org/1999/xlink" viewBox="0 0 54.98 54.98">
  <defs>
    <style>
      .cls-1, .cls-2 {
        fill: none;
      }

      .cls-3 {
        clip-path: url(#clippath-1);
      }

      .cls-2 {
        stroke: #000;
        stroke-linecap: round;
        stroke-linejoin: round;
        stroke-width: 1.08px;
      }

      .cls-4 {
        clip-path: url(#clippath-2);
      }

      .cls-5 {
        clip-path: url(#clippath);
      }
    </style>
    <clipPath id="clippath">
      <rect class="cls-1" width="54.98" height="54.98"/>
    </clipPath>
    <clipPath id="clippath-1">
      <rect class="cls-1" width="54.98" height="54.98"/>
    </clipPath>
    <clipPath id="clippath-2">
      <rect class="cls-1" width="54.98" height="54.98"/>
    </clipPath>
  </defs>
  <g id="Layer_1-2" data-name="Layer 1">
    <g>
      <g class="cls-5">
        <path class="cls-2" d="M44.99,25.19c1.11-1.16,1.44-1.56,1.77-2.08.31-.63.47-1.06.61-1.62l.08-.61"/>
        <path class="cls-2" d="M33.23,29.44c-1,.71-1.89,1.47-2.74,2.35-.69.88-1.4,2-1.93,3.05-.44,1.13-.78,2.38-.98,3.62-.08,1.28-.05,2.38.13,3.73.27,1.15.72,2.45,1.19,3.49.63,1.09,1.34,2.09,2.06,2.92.84.81,1.8,1.57,2.91,2.28,1.1.54,2.27.99,3.41,1.3,1.14.19,2.47.27,3.74.22,1.23-.17,2.43-.46,3.6-.86,1.07-.49,2.17-1.12,3.21-1.88.83-.74,1.76-1.76,2.44-2.67.65-1.08,1.19-2.23,1.62-3.45.28-1.12.47-2.31.55-3.58-.04-1.11-.21-2.4-.48-3.53-.43-1.23-.87-2.18-1.6-3.42-.75-1.01-1.51-1.85-2.41-2.67-.97-.72-1.98-1.33-3.05-1.84-1.17-.43-2.32-.74-3.58-.94-1.12-.07-2.46-.02-3.56.12-1.12.25-2.36.66-3.44,1.14l-1.11.63"/>
        <path class="cls-2" d="M40.71,39.76c.64.16,1.24.38,1.69.6.45.29.88.66,1.24,1.08.27.46.46.91.56,1.36.03.6-.05,1.2-.2,1.66-.23.46-.55.91-.83,1.2-.46.38-1.06.71-1.66.93-.6.12-1.51.22-2.49.09-.77-.22-1.23-.43-1.74-.74-.5-.42-.82-.78-1.12-1.23-.19-.39-.32-.81-.41-1.37"/>
        <path class="cls-2" d="M40.71,39.76c-1.35-.28-2.16-.49-2.96-.8-.61-.34-1.12-.75-1.49-1.21-.28-.59-.41-1.16-.44-1.56.02-.37.19-1.08.52-1.76.48-.58.99-1.01,1.73-1.4.58-.18,1.17-.32,1.79-.41"/>
        <path class="cls-2" d="M28.28,2.53c-.59.07-1.1.21-1.48.35-.71.35-1.45.94-2.43,1.91"/>
        <path class="cls-2" d="M3.61,25.57c-.53.61-.86,1.21-1.01,1.65-.07.37-.07,1.02.11,1.72.35.6.71,1.01,1.65,1.96"/>
        <path class="cls-2" d="M37.57,7.9c2.44,0,4.41,1.98,4.41,4.41s-1.97,4.41-4.41,4.41-4.41-1.98-4.41-4.41,1.97-4.41,4.41-4.41Z"/>
      </g>
      <line class="cls-2" x1="39.99" y1="40.26" x2="39.98" y2="48.08"/>
      <line class="cls-2" x1="47.46" y1="20.87" x2="47.46" y2="5.6"/>
      <line class="cls-2" x1="39.99" y1="40.26" x2="39.96" y2="32.06"/>
      <line class="cls-2" x1="39.96" y1="32.06" x2="39.98" y2="31.41"/>
      <g class="cls-3">
        <path class="cls-2" d="M39.97,32.7c1.96-.21,3.76,1.12,4.13,3.06"/>
        <path class="cls-2" d="M47.46,5.61c.06-1.66-1.23-3.06-2.89-3.13-.31-.01-.62.02-.92.11"/>
      </g>
      <line class="cls-2" x1="43.63" y1="2.51" x2="28.28" y2="2.53"/>
      <line class="cls-2" x1="24.37" y1="4.78" x2="3.61" y2="25.57"/>
      <line class="cls-2" x1="4.37" y1="30.89" x2="18.87" y2="45.35"/>
      <g class="cls-4">
        <path class="cls-2" d="M18.9,45.33c1.2,1.68,3.53,2.07,5.21.87.44-.31.81-.72,1.07-1.19"/>
      </g>
    </g>
  </g>
</svg>