<?xml version="1.0" encoding="UTF-8"?>
<svg id="Layer_2" data-name="Layer 2" xmlns="http://www.w3.org/2000/svg" xmlns:xlink="http://www.w3.org/1999/xlink" viewBox="0 0 58.97 58.96">
  <defs>
    <style>
      .cls-1, .cls-2 {
        fill: none;
      }

      .cls-3 {
        clip-path: url(#clippath-1);
      }

      .cls-2 {
        stroke: #000;
        stroke-linecap: round;
        stroke-linejoin: round;
        stroke-width: 1.17px;
      }

      .cls-4 {
        clip-path: url(#clippath-2);
      }

      .cls-5 {
        clip-path: url(#clippath);
      }
    </style>
    <clipPath id="clippath">
      <rect class="cls-1" width="58.97" height="58.96"/>
    </clipPath>
    <clipPath id="clippath-1">
      <rect class="cls-1" width="58.97" height="58.96"/>
    </clipPath>
    <clipPath id="clippath-2">
      <rect class="cls-1" width="58.97" height="58.96"/>
    </clipPath>
  </defs>
  <g id="Layer_1-2" data-name="Layer 1">
    <g class="cls-5">
      <path class="cls-2" d="M51.23,27.34c-.44-.74-1.77-2.47-2.88-3.73-1.25-1.25-2.65-2.52-4.1-3.7-1.58-1.14-2.96-2.01-4.47-2.86-1.62-.79-2.94-1.33-4.49-1.85-1.52-.39-2.91-.64-4.43-.81-1.39-.05-3.12.03-4.51.19-1.33.25-2.69.61-4.24,1.13-1.49.61-2.95,1.31-4.32,2.07-1.37.87-2.86,1.93-4.26,3.07-1.39,1.27-2.74,2.64-4.04,4.13-.78.99-1.36,1.8-1.74,2.44"/>
      <path class="cls-2" d="M5.16,54.98c-.6-.11-1.12-.36-1.59-.72-.27-.33-.5-.77-.62-1.2-.03-.28-.04-.81-.04-1.59"/>
      <path class="cls-2" d="M2.91,6.1c.1-.53.27-.93.56-1.36.44-.4.8-.6,1.12-.72.28-.03.77-.04,1.47-.05"/>
      <path class="cls-2" d="M53.88,3.98c.6.08,1.04.27,1.42.56.4.51.6.9.73,1.44l.03,1.48"/>
      <path class="cls-2" d="M56.06,52.72c-.09.58-.24.96-.54,1.39-.49.43-.94.68-1.42.82-.35.04-.91.06-1.69.06"/>
      <path class="cls-2" d="M45.31,54.98c-.49-.1-.92-.34-5.34-4.26-2.12-1.82-2.5-2.08-2.89-2.28-.36-.12-.68-.19-1.05-.2-.46.1-.91.28-1.33.54"/>
      <line class="cls-2" x1="27.82" y1="54.58" x2="27.25" y2="54.95"/>
      <path class="cls-2" d="M27.15,40.35c-1.34-.19-2.75-.5-4.09-.88-1.15-.41-2.46-.95-3.88-1.64-.93-.52-1.85-1.06-2.76-1.63"/>
      <path class="cls-2" d="M51.23,27.34c-3.02,4.43-6.08,7.3-10.67,10.06"/>
      <line class="cls-2" x1="26.88" y1="54.97" x2="27.25" y2="54.95"/>
      <path class="cls-2" d="M29.48,19.5c4.41,0,7.99,3.58,7.99,7.99s-3.58,7.99-7.99,7.99-7.99-3.58-7.99-7.99,3.58-7.99,7.99-7.99Z"/>
      <line class="cls-2" x1="26.88" y1="54.97" x2="5.16" y2="54.98"/>
      <path class="cls-2" d="M29.46,24.66c1.57,0,2.85,1.28,2.85,2.85s-1.28,2.85-2.85,2.85-2.85-1.28-2.85-2.85,1.28-2.85,2.85-2.85Z"/>
      <line class="cls-2" x1="2.91" y1="51.48" x2="2.91" y2="6.1"/>
      <circle class="cls-2" cx="46.9" cy="44.58" r="4.57" transform="translate(-9.35 76.55) rotate(-73.16)"/>
    </g>
    <line class="cls-2" x1="6.06" y1="3.98" x2="53.88" y2="3.98"/>
    <g class="cls-3">
      <path class="cls-2" d="M40.55,37.38c-4.02,2.44-8.73,3.49-13.4,2.99"/>
      <path class="cls-2" d="M16.43,36.2c-1.91-1.27-3.66-2.77-5.22-4.46"/>
      <line class="cls-2" x1="56.06" y1="7.45" x2="56.05" y2="52.72"/>
    </g>
    <line class="cls-2" x1="11.21" y1="31.75" x2="7.74" y2="27.43"/>
    <g class="cls-4">
      <line class="cls-2" x1="52.41" y1="54.99" x2="45.31" y2="54.98"/>
      <line class="cls-2" x1="34.69" y1="48.78" x2="27.82" y2="54.57"/>
    </g>
  </g>
</svg>