<?xml version="1.0" encoding="UTF-8"?>
<svg id="Layer_2" data-name="Layer 2" xmlns="http://www.w3.org/2000/svg" xmlns:xlink="http://www.w3.org/1999/xlink" viewBox="0 0 56.16 56.16">
  <defs>
    <style>
      .cls-1, .cls-2 {
        fill: none;
      }

      .cls-3 {
        clip-path: url(#clippath-1);
      }

      .cls-2 {
        stroke: #000;
        stroke-linecap: round;
        stroke-linejoin: round;
        stroke-width: 1.12px;
      }

      .cls-4 {
        clip-path: url(#clippath-2);
      }

      .cls-5 {
        clip-path: url(#clippath);
      }
    </style>
    <clipPath id="clippath">
      <rect class="cls-1" width="56.16" height="56.16"/>
    </clipPath>
    <clipPath id="clippath-1">
      <rect class="cls-1" width="56.16" height="56.16"/>
    </clipPath>
    <clipPath id="clippath-2">
      <rect class="cls-1" width="56.16" height="56.16"/>
    </clipPath>
  </defs>
  <g id="Layer_1-2" data-name="Layer 1">
    <g class="cls-5">
      <path class="cls-2" d="M26.98,32.2c2.82-.7,6.06-1.32,9.37-1.77,3.25-.28,6.4-.39,8.45-.39,2.17.05,5.53.28,6.93.43l1.65.24"/>
      <path class="cls-2" d="M18.85,12.69c.01-1.25-.11-2.34-.28-2.99-.16-.43-.6-1.31-1.25-2.16-.41-.42-.85-.8-1.29-1.1-.65-.36-1.09-.56-1.74-.78-1.07-.2-1.71-.24-2.31-.22-1.02.17-2.1.54-2.62.8-.57.36-.97.66-1.41,1.05-.44.48-.8.96-1.06,1.4-.26.53-.5,1.23-.65,1.91-.03.62,0,1.76-.06,2.11-.19.32-.76.86-1.15,1.3-.54.74-1.04,1.72-1.22,2.23-.13.52-.24,1.4-.24,2.05.05.62.26,1.63.57,2.48.26.52.59,1.07,1.02,1.64.45.49,1.28,1.17,1.86,1.54.55.27,1.48.59,2.68.81.99.06,2.9.05,4.04.1"/>
      <path class="cls-2" d="M13.73,24.85c1.15-.01,2.23-.16,3.33-.47,1.08-.5,1.97-1.09,2.79-1.86.65-.86.91-1.3,1.21-1.96.33-1.09.48-2.18.43-3.27-.23-1.09-.67-2.18-1.19-3.04-.35-.43-.83-.95-1.46-1.56"/>
      <path class="cls-2" d="M2.82,30.88c1.97-.07,4.14-.03,6.09.07,2.5.21,3.31.31,6.92.88,1.74.37,3.25.77,4.76,1.22,1.52.52,4.58,1.75,5.34,2.1,2.35,1.28,3.68,2.07,4.88,2.85l1.63,1.18"/>
      <path class="cls-2" d="M18.02,48.95c1.82-1.72,3.55-3.2,5.25-4.52,1.88-1.32,4.18-2.75,6.3-3.94,1.76-.85,4.31-1.89,6.36-2.6,2.4-.7,4.77-1.26,7.37-1.74,2.53-.32,5.18-.53,7.56-.59l2.52.06"/>
      <path class="cls-2" d="M2.89,36.88c2.41,0,4.14.12,5.55.29,1.31.21,2.6.47,4.13.85,1.52.45,2.81.89,4.1,1.39,1.58.69,2.82,1.29,5.13,2.57l2.57,1.66"/>
      <line class="cls-2" x1="27.91" y1="52.78" x2="35.27" y2="46.99"/>
      <path class="cls-2" d="M44.65,3.38c2.94,0,5.33,2.38,5.33,5.33s-2.39,5.32-5.33,5.32-5.33-2.38-5.33-5.32,2.39-5.33,5.33-5.33Z"/>
    </g>
    <line class="cls-2" x1="35.46" y1="24.05" x2="32.21" y2="24.08"/>
    <line class="cls-2" x1="35.47" y1="30.54" x2="35.46" y2="24.05"/>
    <line class="cls-2" x1="32.21" y1="24.09" x2="32.19" y2="31.04"/>
    <line class="cls-2" x1="33.7" y1="13.52" x2="25.32" y2="21.86"/>
    <line class="cls-2" x1="33.7" y1="13.52" x2="42.3" y2="21.96"/>
    <line class="cls-2" x1="41.02" y1="30.09" x2="41" y2="20.68"/>
    <line class="cls-2" x1="26.72" y1="32.27" x2="26.63" y2="20.66"/>
    <line class="cls-2" x1="12.56" y1="16.71" x2="12.61" y2="31.32"/>
    <g class="cls-3">
      <path class="cls-2" d="M2.77,43.59c5.44.11,10.64,2.28,14.56,6.07"/>
      <line class="cls-2" x1="14.81" y1="52.71" x2="18.02" y2="48.95"/>
    </g>
    <line class="cls-2" x1="26.98" y1="32.2" x2="22.4" y2="33.7"/>
    <line class="cls-2" x1="22.4" y1="33.68" x2="22.4" y2="33.7"/>
    <g class="cls-4">
      <path class="cls-2" d="M35.27,46.99c5.5-3.26,11.73-5.08,18.12-5.29"/>
    </g>
  </g>
</svg>